<?xml version="1.0" encoding="utf-8"?>
<!-- Generator: Adobe Illustrator 24.0.1, SVG Export Plug-In . SVG Version: 6.00 Build 0)  -->
<svg version="1.1" id="Layer_1" xmlns="http://www.w3.org/2000/svg" xmlns:xlink="http://www.w3.org/1999/xlink" x="0px" y="0px"
	 viewBox="0 0 1440 810" style="enable-background:new 0 0 1440 810;" xml:space="preserve">
<style type="text/css">
	.st0{fill:#FFFFFF;}
	.st1{fill:url(#SVGID_1_);}
	.st2{fill:url(#SVGID_2_);}
	.st3{fill:url(#SVGID_3_);}
	.st4{fill:#00ACBF;}
</style>
<g id="Layer_1_1_">
	<title>v2-55703f518668b5da7ffa7ea25c9a888a_1440w</title>
	<path class="st0" d="M177.5-1082.9v-296h1440v425c-21.1-1.7-42.2-3.4-63.3-5.2c-48.6-4.2-97.3-8.4-145.9-12.7
		c-42.8-3.7-85.6-7.4-128.4-11.4c-55.1-5.1-110.1-10.3-165.1-15.6c-52.1-5-104.1-10-156.2-15c-57.8-5.6-115.7-10.9-173.5-17.5
		c-28.6-3.3-56.9-9-85.3-13.5c-3.6-0.6-4.7-2.1-4.5-5.6c0.2-7.3-0.1-14.7,0.2-22c0.2-5.1-3.2-4.4-6.3-4.6c-3.4-0.2-5.8,0.3-5.5,4.7
		c0.3,4.8,0,9.7,0,14.5c0,3,0,6,0,10.1c-7.9-5.4-14.5-9.9-21-14.5c-2.4-1.7-5.1-2.9-6.9,0.1c-0.8,1.3,0.6,3.9,1.2,5.9
		c0.2,0.7,0.9,1.3,1.8,2.3c-2.1,1-3.8,1.9-5.6,2.6c-30.6,12.9-62.4,22.7-94.9,29.1c-40.1,8.1-80.4,15.9-120.7,22.7
		c-37.1,6.3-74.4,11.4-111.7,16.5c-33.3,4.6-66.7,8.6-100.1,12.7c-16,2-32.1,3.5-48.2,5.2v-97l16.3-2.9l-0.3-1.5l-16.1,2.6v-17
		c6.8-1.2,13.5-1.8,19.4,3.2c0.5,0.4,1.6,0.2,2.4,0.2c10.4,0.2,20.7,0.3,31.1,0.6c1.5,0,2.9,0.7,4.4,0.9c6.4,0.8,12.8,1.6,19.2,2.3
		c4.1,0.5,8.3,0.7,12.4,1.1l17.8,1.7c-0.6-1.2-1.4-1.9-2.3-2c-9.9-0.8-19.9-1.5-29.8-2.4c-5.1-0.5-10.1-1.5-15.2-2.1
		c-4.4-0.5-8.8-1.1-13.3-1.3c-8.5-0.4-17-0.4-25.6-0.6c-0.3,0-0.7-0.1-1-0.2C191.2-1084.5,184.3-1083.3,177.5-1082.9z
		 M1287.7-1115.1c0.6-0.6,1.1-1.5,1.8-1.8c4.7-1.4,9.4-2.7,14.1-4c-0.1-0.4-0.3-0.9-0.4-1.3c-5.3,1.4-10.6,2.8-15.9,4.4
		c-0.6,0.2-0.8,1.5-1.2,2.3l1.8,0.2c-0.3,0.7-0.7,1.4-1.6,3.3c6.9-3.7,14.5-1,19.6-6.6C1299.7-1117.4,1293.7-1116.3,1287.7-1115.1z
		 M1531-1196.5c2.3,0.1,4.7,0.8,6.9,0.3c6-1.3,12.3-0.6,17.9,2.2c1.6,0.8,3.7,0.6,5.3,0.8C1551.5-1198.1,1541.3-1198.7,1531-1196.5
		c-0.9-0.7-1.6-1.9-2.5-2c-5.2-0.9-10.4-2.2-15.6-2.2c-9.4,0.1-18.7,1-28.1,1.6c5.3,0.6,10.6,0.7,15.9,0.4
		C1511-1199.8,1521.2-1201,1531-1196.5z M1277.4-1174.9c7.2,0.3,14.8-1.9,21.3,4l-11.6-1.1c5.5,3.2,11,3.9,16.4-0.2
		c-4.7-2.2-9.5-4.1-14.4-4.8c-11.2-1.5-22.6-2.4-33.8-3.5c12.4-0.9,24.7-1.1,36.4-6.2c-0.6-1-1.6-1.8-2.7-2.3
		c-3.3-1.1-6.6-2.1-10-2.8c-4.5-0.9-9.1-1.5-13.7-2.3c-4.5-0.9-9.4-1.6-13.9-3.1c-7.5-2.6-14.7-5.7-22-8.6c-0.1,0-0.4,0.4-1.7,1.5
		c11.2,4.1,21.7,8.1,32.3,11.9c1.3,0.5,3,0.1,4.5,0c8.2-0.7,15.2,3.1,22.4,6.7c-11,1.2-22.1,1.8-33.2,1.8c-7.6,0-15.2-0.7-22.8-0.9
		c-1.7,0-3.5,0.8-5.2,1.2c0,0.5,0,1.1,0,1.6c1.2,0.5,2.5,0.8,3.8,1c8.1,0.6,16.3,0.5,24.3,1.6s15.9,3.1,23.8,4.7
		c-2.8,0.4-5.6,0.8-8.3,1.2c-11.1,1.6-21.6,6.8-33.3,4.7c-1.5-0.3-3.3,1.6-5.1,2.3c-1.3,0.7-2.7,1.1-4.2,1.2c-1.8-0.1-3.5-1-5.3-1.2
		c-17-1.5-34-3.8-51.1-4.2c-15.4-0.4-30.9,1-46.3,2.1c-5.9,0.4-11.8,2.4-17.6,3.6c0.6,0.7,1.6,1.1,2.5,0.9c12-1.5,24-4.1,36-4.4
		c17-0.4,34.1,0.5,51.2,1.5c10.6,0.6,21.1,2.5,31.6,3.7c1.1,0.1,2.7,0,3.2-0.7c2.8-4.2,6.8-3,10.8-3c3.5,0,6.9-0.3,10.4-0.9
		c10.2-1.6,20-6.7,30.7-3.2c0.3,0.1,0.7-0.4,1.5-0.8L1277.4-1174.9z M724.3-1098.8c6.8,4.5,14.2,5.8,22.2,4.7
		c4.9-0.6,9.9-0.9,14.8-0.7c14.4,0.4,28.9,1.1,43.3,1.6c0.8,0,1.6-0.5,3.7-1.2c-1.2-0.3-2.5-0.5-3.7-0.6
		c-16.3,0.3-32.7,1.1-48.8-2.5c-10.7,3.1-21.3,1.7-31.8-1.2c9.8-1.3,19.5-3,29.3-3.6c8.5-0.5,16.9,0.2,24.4-5.3
		c1.3-1,4.7-0.8,6.2,0.3c4.2,2.7,8.4,2.8,12.9,1.9c12.6-2.4,25-7.1,38.3-4.4c1,0.1,2,0,3-0.2c7.8-1.2,15.5-1.7,22.9,2.3
		c2.6,1.4,5.7,1.9,7.2,0c0-3.1-0.3-5.1,0.2-6.9c0.2-0.6,2.7-0.9,4-0.6c3.8,1,7.5,2.4,11,3.5l-6.8,3c0.1,0.6,0.3,1.1,0.4,1.7
		c2,0.2,4.1,0.1,6.1-0.1c5.8-1,11.9-4,17.4-3c8.3,1.4,16.3,5.1,24.1,8.7c3.9,1.8,7.2,4.7,12,3.5c1.4-0.4,3,0.1,4.5,0.2
		c0,0.6,0,1.1,0,1.7l-15,1.5c0,0.5,0.1,1,0.1,1.5c4.1-0.2,8.3-0.2,12.3-0.8c1.8-0.3,3.4-2,5.1-3c-1.8-1-3.5-2.4-5.5-2.9
		c-3-0.7-7,0.3-9-1.4c-6-5-13.3-6.6-20.3-9.1c-5.3-1.9-10.5-2.7-16,0c-2.1,1-4.8,1-7,1.4c0.2-1.8,1-4,0.4-4.5
		c-1-0.9-2.9-0.6-4.5-0.9c-2.1-0.4-4.1-0.9-6.2-1.1c-2.8-0.3-5.9-1.2-8.2-0.3c-1.3,0.5-1.3,4.3-2,7.3l-5.8-1.6c-3-0.8-6.2-2.7-9-2.4
		c-15.1,1.9-30.6-2.1-45.4,3.5c-2.7,0.9-5.5,1.5-8.3,1.8c-4.3,0.6-8.6,1.2-12.3-2c-2.7-2.3-5.4-0.9-8.3,0.3
		c-4.4,1.8-8.9,3.7-13.5,4.3c-11.4,1.3-22.9,1.8-34.3,2.8C726.8-1101.8,723.1-1103.2,724.3-1098.8z M1008.4-1185.5
		c1.9-3.1,5.4-4.8,9-4.3c3.8,0.3,7.6,0.3,11.4,0c5.8-0.5,11.5-1.9,17.3-2.1c11.8-0.4,23.2-2.1,34.2-6.4c0.9-0.4,2.3-0.9,2.4-1.5
		c0.7-5.8,4.6-3.9,7.9-3.4c12.5,2.1,25,3.9,37.7,1.2c2.5-0.7,5-1.6,7.4-2.6l-0.5-1.4l-18-2c3.4-1,6.8-0.5,10-1.1
		c7.1-1.4,14.1-3.3,21.1-5.2c7.5-2,14.9-4.3,22.4-6.4c-0.1,0.8-0.3,1.5-0.4,2.2c0.9,1.1,1.7,3.1,2.7,3.3c3.4,0.7,6.9,1,10.3,0.8
		c9.5-0.6,18.9-2.3,28.3-2.2c12.4,0.1,24.8,1.6,37.2,2.5c-3.6,1.2-7.4,2-11.2,2.2c-4.6,0.4-9.2,0.6-13.8,0.9
		c-2.6,0.1-5.3,0.4-7.9,0.3c-9.9-0.3-19.8-1.2-29.7-0.8c-7.7,0.3-15.3,2.3-22.9,3.6c-0.8,0.1-1.6,0.3-2.3,0.8c-1,0.8-2.5,2-2.4,2.6
		c0.5,1.3,1.5,2.3,2.7,2.9c1.3,0.5,2.9,0.1,4.4,0.3c2.3,0.2,4.7,0.5,7,0.9c3.6,0.7,7.1,2.1,10.7,2.1c8.6,0.1,17.3-0.3,25.9-0.9
		c10.1-0.6,11.7-1.6,14.6-6.7c-3.7,1.4-7.6,4-11.9,4.5c-8.4,1-16.9,1.4-25.4,1c-8.4-0.4-16.7-2.1-25.1-3.3c-0.2,0-0.4-0.5-0.9-1.3
		c1.3-0.5,2.5-1.3,3.6-1.2c6.7,0.9,12.7-1.3,18.9-3.2c1.8-0.4,3.6-0.5,5.4-0.5c14-0.9,28.1,2.7,42.1-0.8c1.8-0.5,3.9,0.3,5.9,0.4
		c5.6,0.5,11.2-0.7,16.1-3.4c-1.5-1.1-3.2-1.8-5-2c-2.1-0.3-4.4,0.2-6.4-0.4c-15.3-4.1-30.6-3.3-46.1-1.7c-7,0.7-14.1,1.1-22.4,1.8
		c3.8-4.4,1.8-6.2-1-5.8c-7.6,1.1-15.5,2.1-22.7,4.6s-14.2,6.4-22.3,6c-3.5-0.2-7-0.1-10.5,0.3c-1.5,0.1-3,1.1-4.4,1.8
		c0,0.6,0.1,1.2,0.1,1.8l16.5,2.7c-6.5,1.3-13.2,1.8-19.8,1.6c-6.6-0.4-13.2-1.6-19.8-2.5c-3.6-0.5-7.2-1.3-8.1,3.9
		c-0.1,0.6-1.1,1.3-1.8,1.5c-6.4,1.8-12.7,4-19.3,5c-9.4,1.4-18.9,1.8-28.3,2.6c-4.1,0.5-8.2,0.8-12.3,0.8
		c-4.3-0.1-8.2,0.3-11.4,3.7c-1.8,2-2.5,4,0.1,5.3c3.9,2,2.3,5,1.4,7.3c-0.6,1.4-3,2.4-4.8,3.1c-2.2,0.8-4.5,1.6-6.8,2.2
		c0.1,0.7,0.3,1.4,0.4,2.1l9,0.6l0.1-1.3l-5.2-1c7.9-2.3,11.2-5.2,11-10.9C1012.9-1181.9,1010.3-1183.5,1008.4-1185.5z M525-1166.7
		c0-0.9,0-1.9,0.1-2.8c-15.5-0.8-31-1.7-46.6-2.4c-9.3-0.4-18.6-0.6-28-0.4c-16.6,0.3-33.3,1-49.9,1.4c-9.9,0.2-20,0.8-29.9,0
		c-10.4-0.8-20.8-3-31.1-4.4c-11.1-1.6-22.8,0.5-33-5.9c-0.6-0.3-1.3-0.4-1.9-0.5c-13.3-1.6-26.6-2-39.8,0.2
		c-1.5,0.3-3.1,0.3-4.6,0.4c2.7-3.7,6.9-5.9,11.5-6c5.6-0.3,11.2-1.3,16.8-2c4.9-0.6,9.9-1.1,14.8-1.8c8.2-1.2,16.4-2.3,24.5-3.9
		c6-1.2,12-2.7,17.8-4.4c4-1.2,7.9-3,11.9-4.6l-0.5-1.3c-1.1,0.2-2.2,0.4-3.3,0.7c-4.1,1.3-8.1,2.7-12.2,4
		c-3.8,1.1-7.7,2.1-11.5,3.1c-6.1,1.5-12.2,3.4-18.4,4.3c-6.4,0.9-12.9,0.5-19.4,1.2c-7.1,0.7-14.1,2.1-21.1,2.9
		c-5.9,0.6-10.7,2.8-15.6,8.5c3.8,0.4,6.3,1.1,8.8,0.9c5.8-0.4,11.6-1.9,17.4-1.5c10,0.6,20,2.2,30,3.6c4.2,0.6,8.2,2.4,12.4,2.9
		c8.1,1,16.3,1.3,24.3,2.4c16.8,2.3,33.5,5.9,50.6,3.4c5.8-0.8,11.6-1.3,17.4-1.3c22.5-0.2,45-0.5,67.4-0.2
		c10.6,0.2,21.1,1.8,31.7,2.8C518.7-1167.2,521.8-1167,525-1166.7z M362.5-1204.4c2.4,1.5,4.8,4.2,7.4,4.4
		c12.4,1.1,24.9,1.4,37.3,2.1c9.7,0.6,19.2,0.4,28.6-2.7c3.4-1.1,7.2-1,10.8-1.2c3.5-0.2,7.2,0.3,6.1-6.1l59.7-1.6l0.1,1.8
		l-26.9,1.8l-0.1,1.6c5.8,3.4,12.4,2.2,18.7,2.5l0.2-1.4l-12.6-1.1c7.1-0.5,14.2-1,21.2-1.7c1.4-0.1,2.7-1.4,4.1-2.1
		c-1.2-0.8-2.5-2.2-3.7-2.3c-19.8-1-39.6-1.3-59.2,1.5c-1,0.1-2.6,0.9-2.8,1.7c-1,4.2-4.1,3.4-7,3.6c-3.8,0.3-7.5,1.1-11.3,1.8
		c-5.4,0.9-10.9,3-16.2,2.5C399-1201.1,380.5-1197.5,362.5-1204.4z M1578.5-1176.3l0.2-0.9c-0.8-0.3-1.7-0.6-2.6-0.8
		c-8.6-0.8-17.2-1.4-25.8-2.3c-16.6-1.7-33.4-0.1-49.4,4.9c-5,1.6-9.7,2.8-15,1c-2.4-0.8-5.3-0.3-7.9-0.2
		c-8.6,0.3-17.3,1.4-25.9,0.9c-20.8-1.1-41.5-3.1-62.2,1.5c-4.9,1.1-11.7,2.3-13.9-5.7c-0.3-0.6-0.9-0.9-1.6-0.9
		c-5.5,1-10.9,2.1-16.3,3.1c0.1,0.4,0.2,0.9,0.3,1.3c4-0.7,8.1-1.4,12.2-2c1.2-0.2,3.2-0.3,3.6,0.4c5,7.4,12.1,5.8,19.3,5.1
		c12.1-1.1,24.2-2.1,36.3-2.3c16.1-0.3,32.2,0,48.4,0.2c3.6,0.1,7.2,0.8,10.8,0.9c2.8,0.1,5.8,0.5,8.3-0.4
		c20.7-7.4,42.2-7.4,63.7-6.1C1566.8-1178,1572.7-1177,1578.5-1176.3L1578.5-1176.3z M1467.5-1195c-1.1,0.1-2.1,0.1-3.2,0
		c-8.5-1.2-17-2.6-25.5-3.7c-2.1-0.4-4.3,0-6.3,0.9c-7,4.2-14.4,3.6-21.8,2.5c-13.4-2-26.9-3.5-40.1,0.5c-7.7,2.3-15.6,5.2-22.3,9.5
		c-5,3.2-9.4,5.8-15.4,5.3c-3.1-0.3-6.3-0.2-9.4,0.2c-1.3,0.2-2.4,1.8-3.6,2.7c1,1.2,1.9,3,3.2,3.4c2.7,0.7,5.6,1,8.4,1
		c5.5,0.1,11,0,16.5,0c0-0.6,0-1.2,0-1.8c-8.8,0.5-17.6,0.4-26-2.5c3.3-1.2,6.6-1.4,9.9-1.6c3.1-0.2,6.4,0.2,9.1-0.9
		c5.5-2.3,10.8-5,16-8.1c15.1-8.6,31.1-9.7,47.9-7c10,1.6,20.2,3.4,29.6-2.5c0.9-0.4,1.9-0.6,2.9-0.4c8.7,1.1,17.3,2.4,26,3.5
		c2.2,0.1,4.3,0.1,6.5,0c0-0.5,0.1-1,0.1-1.5l-4.6-4.3l14.8-1c-0.1-0.5-0.1-0.9-0.2-1.4l-16.9,1.8L1467.5-1195z M682.9-1180l0.2-1.3
		c-5.4-1.2-10.8-2.3-16.2-3.6c-2-0.5-4.8-0.9-5.8-2.4c-3.6-5.7-9-5.4-14.6-5.2c-4.1,0.3-8.3,0.4-12.5,0.3
		c-9.8-0.7-19.6-2.9-29.3-2.5c-17.3,0.8-33.4-4.9-50-7.6c-5.5-0.9-11.1-1.4-16.8-1.4c-7.8,0-15.6,0.6-23.3,1c-0.5,0.1-1,0.3-1.5,0.6
		l0.2,1.8c7-0.4,14.1-0.3,21-1.1c6.9-0.8,13.7-1.1,20.7,1c8.4,2.5,17,5,25.7,5.7c23,1.9,45.9,4.7,69.1,4c3.7-0.1,6.6,0.7,9.1,3.9
		c1.5,1.9,4.3,3,6.7,3.8c4,1.1,8.1,2,12.1,2.7C679.6-1180.3,681.3-1180.2,682.9-1180z M659.1-1170.3v-1c-3.3-0.8-6.8-1.2-9.8-2.6
		c-4.9-2.3-9.5-1.9-14.5-0.6c-5.6,1.4-11.4,2.3-17.1,2.9c-13.5,1.4-27.1,2.7-40.7,3.9c-9.5,0.8-19.1,1.5-28.7,2.1
		c-4.2,0.2-8.4,0-12.5,0c0.4,0.8,1.2,1.4,2.1,1.4c11.8-0.3,23.5-0.3,35.3-1.1c8.3-0.6,16.4-2.6,24.6-3.5c10.9-1.2,21.9-1.3,32.7-3.1
		c8.1-1.4,15.7-1.9,23.3,1.4C655.4-1170.1,657.4-1170.4,659.1-1170.3z M919.8-1094.7c-3.7-1.7-7-3-11.1-0.6c-3.2,1.9-7.4,3.2-11,2.8
		c-11-1.3-21.8-0.7-32.8,0.1c-12.9,0.9-25.9,2.9-38.8-1.1c-3.4-1.1-7.3-0.8-11-1.2c6.6,2.3,13.3,4.2,20.1,5.7c1,0.1,2,0,2.9-0.1
		c3.7-0.3,7.5-0.6,11.2-0.8c4.8-0.2,9.6-0.4,14.4-0.5c9.9-0.2,19.9-0.3,29.8-0.5c4.3-0.1,9.3,1.1,12.6-0.7
		C910.8-1094,914.7-1095.7,919.8-1094.7L919.8-1094.7z M1009.5-1168.2c0,0.4,0.1,0.8,0.1,1.1c2.3-0.6,4.9-0.8,6.8-2
		c3.4-2.2,6.5-2.1,10.3-0.9c4.7,1.6,9.7,2.5,14.7,2.7c11.3,0.1,22.6,1.8,33.4,4.9c8.1,2.3,16.3,0.5,25.1-0.6c-1-0.8-1.3-1.1-1.5-1.1
		c-1.3-0.1-2.7,0-4,0.1c-10.6,1.6-20.8,0.2-30.9-3.2c-2.2-0.7-4.5-1.1-6.9-1.2c-11.3-0.6-22.5-1.1-33.4-4.8
		c-1.4-0.5-3.3,0.2-4.8,0.8C1015.4-1171.1,1012.5-1169.6,1009.5-1168.2L1009.5-1168.2z M1227.4-1106.8l-0.2-1.9
		c-10,1.4-20,2.9-30,4.2c-7.1,0.9-14.3,3.2-21.3-0.9c-2.5-1.4-5.8-1.5-8.7-1.9c-1.1-0.1-2.9,0.4-3.4,1.2c-0.3,1.2,0.2,2.5,1.1,3.3
		c5.9,2.9,12,5.5,18,8.2c0.3,0.1,0.8-0.3,1-0.4l-18.3-9.7l0.7-1.6c4.3,1.4,8.7,2.9,13,4.3c1.5,0.6,3.1,0.9,4.7,0.9
		c14.2-1,27.9-5.4,42.2-5.2C1226.6-1106.2,1227-1106.6,1227.4-1106.8z M288.3-1071.3c-2.6,1.1-4.4,2.3-6.3,2.7
		c-2.6,0.5-5.6-0.2-7.9,0.9c-4.3,2.1-8.3,1.2-12.6,0.7c-4.8-0.5-9.5-0.7-14.3-0.5c-10.5,0.4-20.9,1.2-31.4,1.7
		c-4.9,0.2-9.8,0-14.7,0v1.6c10.7,0,21.4,0,32.1,0c9.4,0,18.6-4.3,28.2-1.2c8.6,2.7,16.5-2,24.9-2.3c1-0.2,1.8-0.8,2.3-1.6
		C288.9-1070,288.3-1071.1,288.3-1071.3L288.3-1071.3z M1342.2-1127c-0.1-0.5-0.3-1-0.4-1.5l-19.8,3.6c3-1.9,6.2-2.5,9.4-3.4
		c3.3-0.9,6.6-2,9.9-3.3c2.6-1.1,4.7-4.5,9.6-2.1l-7,3.5c1.6,0.5,3.3,0.3,4.8-0.4c1.2-0.7,1.8-2.3,2.7-3.5c-1.5-0.9-2.9-2.2-4.4-2.4
		c-1.3-0.1-2.6,1.2-4,1.8c-4,1.6-7.9,3.5-11.9,4.8c-5.2,1.7-10.5,2.9-15.8,4.6c-1.7,0.5-3.2,1.8-4.8,2.7c0.2,0.6,0.4,1.3,0.6,1.9
		L1342.2-1127z M690.2-1179.1c-11.9,2.2-23.1-2.4-35,2.1l7.9,6c1.7-2.6,1.7-2.6-3.1-5.9c2.9,0,5.1,0,7.4,0
		c7.5-0.1,14.9-0.1,22.3-0.5c1.3-0.1,2.6-1.9,3.8-3c-1.4-0.6-2.8-1.2-4.3-1.7c-0.6-0.2-1.4,0.3-2.5,0.6L690.2-1179.1z
		 M1234.2-1107.5l-1.2-0.1c-2.1,1.3-4.1,3.3-6.3,3.7c-12,2.2-24.3,2.9-35.4,8.7c-1,0.5-2.5,0.2-3.8,0.3c4,2.5,7.6,0.7,11.1-0.9
		c5.8-2.6,11.5-4.6,18.1-4.7c5.1-0.1,10.2-2.4,15.2-4C1232.9-1104.8,1233.4-1106.5,1234.2-1107.5L1234.2-1107.5z"/>
	<path class="st0" d="M-0.6,631.5v-215c34.1-2.1,68.2-3.7,102.2-6.5c44.6-3.6,89.2-8,133.8-12.5c32-3.3,63.9-6.9,95.7-11.4
		c51.4-7.3,102.7-15.6,154-23.4c6.5-1,13.1-2.1,19.5-3.2v115c-0.8-0.2-1-0.2-1.1-0.3c-0.4-0.5-0.7-1.1-1-1.7c-1.8-3-7-4.4-9.8-1.8
		c-1.1,1-0.5,4.7,0.3,6.7c1.1,3,3.2,5.6,5,8.6c-7.5,0.9-12.4,6.7-9.8,11.1c2.1,3.7,4.2,8.2,10.1,7.1c1.1-0.2,3.6,1.6,3.6,2.5
		c0,8.3,2,16.6,2.2,24.8c0.7,31.5,0.1,63,0,94.5c0,1.8-0.2,3.5-0.3,5.4c-1.9,0.1-3.2,0.2-4.5,0.2c-78.5,0-156.9,0-235.4-0.1
		c-2.6-0.1-5-1.1-6.9-2.9c-5.3-5.4-12.1-9-19.4-10.4c-15.4-3.1-30.5,1-45.7,1.4c-1.2,0.1-2.3,0.6-3.2,1.4
		c-12.7,9.5-26.9,11.1-42.4,10.9C97.4,631.2,48.4,631.5-0.6,631.5z"/>
	<path class="st0" d="M1439.4,435.5v117c-32.8,1.1-65.6-2.1-98.3,2c-7.6,1-10.5,3-11,10.6c-0.1,1.3-0.3,2.5-0.5,3.6h-198.1
		c6.7-15.2,13.2-29.5,19.2-44.1c2-4.9,5.1-7.3,9.8-9.5c16.2-7.9,33-11.9,51.1-10.1c5.4,0.5,11.1-6.8,9.2-11.9
		c-0.9-2.4-1.4-6.1-5.9-6.5c-9.3-0.8-18.5-2.1-27.7-3.5c-13-2-25.9-6.1-38.9-6.1c-107.5-0.5-215-0.3-322.5-0.3
		c-1.8,0-3.5,0.2-5.4,0.3v65.5h28.4V557l-28-5.1c-0.1,0.4-0.2,0.9-0.3,1.3c1.8,0.4,3.6,0.9,5.5,1.3c6.1,1.1,12.1,2.3,18.2,3.3
		c3.7,0.6,5.2,2,5.2,6.1c-0.2,21.3-0.1,42.7-0.1,64c-0.1,1.2-0.2,2.4-0.4,3.6h-21.2c-1-4-2.9-7.9-7.3-7.5c-3.3,0.3-7.3,1.9-9.3,4.4
		c-2.2,2.8-4.2,3.5-7.4,3.5c-68.7-0.1-137.3-0.1-206-0.1c-1.6,0-3.2-0.2-4.7-0.3c-0.2-0.6-0.4-1.2-0.5-1.8c0-21-0.1-42,0-63
		c0-4.5,4.2-8.9,8.7-9.7c12.4-2.4,24.8-5,37.3-6.9c17.2-2.7,34-7.9,51.8-7.6c21.2,0.4,42.3,0.1,63.5,0.1c3.5,0,7.1-0.2,10.5,0.4
		c16.5,3,33,6.2,49.6,9.3c1.3,0.2,2.6,0.3,3.9,0.3l0.1-1.2l-41.8-8c0-0.3,0-0.7,0.1-1H818v-65.9h-5.6c-81.5,0-163,0-244.5,0.1
		c-9.6,0-19.2,1.5-28.7,2.8c-7.1,1-14.2,2.7-21.6,4.2c-0.2-2.2-0.4-3.7-0.4-5.1c0-17.3-0.1-34.7,0.1-52c0-2.3,1.6-4.5,2.4-6.5
		c-0.6-0.9-2.5-2.5-2.3-3.8c0.4-3.7-2.9-8.9,4.2-10.5c-7.4-2.1-3.6-7.7-4.2-11.6c-0.3-1.7,1.6-3.8,2.6-5.9c-0.3-0.3-2.5-1.4-2.6-2.6
		c-0.3-7.4-0.2-14.9-0.2-22.6c3.8-0.2,6.5-0.8,9.6-2.7c3.6-2.3,9.7-1.9,14.5-1.1c42.2,7,84.3,14.8,126.5,21.6
		c53.9,8.6,107.9,17.3,162,24.5c50.8,6.8,101.8,12.6,152.9,17.2c55.6,5,111.3,8.8,167,11.7c42.1,2.2,84.3,3.2,126.4,3.3
		C1330.4,437.5,1384.9,436.2,1439.4,435.5z M788.9,448.2c2.2,0.2,4.5,0.3,6.7,0.3c0.9-0.3,1.7-0.9,2-1.8c0.2-0.9,0-1.9-0.6-2.5
		c-0.6-0.5-1.8-0.3-2.7-0.1c-1.8,0.3-3.6,0.8-4.4,1C789.5,446.3,789.2,447.3,788.9,448.2z"/>
	
		<linearGradient id="SVGID_1_" gradientUnits="userSpaceOnUse" x1="278.05" y1="675.05" x2="1155.3003" y2="-202.2004" gradientTransform="matrix(1 0 0 -1 0 810)">
		<stop  offset="0.4358" style="stop-color:#000000"/>
		<stop  offset="0.4951" style="stop-color:#003238"/>
		<stop  offset="0.5544" style="stop-color:#005E68"/>
		<stop  offset="0.6106" style="stop-color:#00808E"/>
		<stop  offset="0.6623" style="stop-color:#0098A9"/>
		<stop  offset="0.7081" style="stop-color:#00A7B9"/>
		<stop  offset="0.743" style="stop-color:#00ACBF"/>
		<stop  offset="1" style="stop-color:#FFFFFF"/>
	</linearGradient>
	<path class="st1" d="M1439.4,435.5c-54.5,0.7-109,2-163.4,1.9c-42.1-0.1-84.3-1-126.4-3.3c-55.7-3-111.4-6.7-167-11.7
		c-51.1-4.6-102.1-10.4-152.9-17.2c-54.1-7.2-108-15.9-162-24.5c-42.2-6.8-84.3-14.5-126.5-21.6c-4.8-0.8-10.8-1.2-14.5,1.1
		c-3.1,2-5.8,2.5-9.6,2.7c0,7.8-0.2,15.2,0.2,22.6c0,1.2,2.2,2.3,2.6,2.6c-1,2.1-2.9,4.1-2.6,5.9c0.6,4-3.2,9.5,4.2,11.6
		c-7.1,1.6-3.8,6.8-4.2,10.5c-0.1,1.4,1.8,3,2.3,3.8c-0.8,2-2.4,4.2-2.4,6.5c-0.2,17.3-0.1,34.7-0.1,52c0,1.5,0.2,2.9,0.4,5.1
		c7.4-1.5,14.5-3.2,21.6-4.2c9.5-1.3,19.1-2.7,28.7-2.8c81.5-0.2,163.1-0.3,244.5-0.2h5.7V542h-41.8c0,0.3,0,0.7-0.1,1l41.8,8
		l-0.1,1.2c-1.3-0.1-2.6-0.2-3.9-0.3c-16.5-3.1-33-6.3-49.6-9.3c-3.4-0.6-7-0.4-10.5-0.4c-21.2,0-42.3,0.3-63.5-0.1
		c-17.7-0.3-34.5,4.9-51.8,7.6c-12.5,2-24.9,4.6-37.3,6.9c-4.5,0.9-8.7,5.3-8.7,9.7c-0.1,21,0,42,0,63c0.1,0.6,0.3,1.2,0.5,1.8
		c1.5,0.1,3.1,0.3,4.7,0.3c68.7,0,137.3,0,206,0.1c3.2,0,5.2-0.7,7.4-3.5c1.9-2.5,6-4.1,9.3-4.4c4.5-0.4,6.3,3.5,7.3,7.5h21.2
		c0.2-1.2,0.3-2.4,0.4-3.6c0-21.3-0.1-42.7,0.1-64c0-4.1-1.5-5.5-5.2-6.1c-6.1-0.9-12.1-2.2-18.2-3.3c-1.8-0.3-3.7-0.8-5.5-1.3
		c0.1-0.4,0.2-0.9,0.3-1.3l28,5.1v-14.5h-28.4v-65.6c1.9-0.1,3.6-0.3,5.4-0.3c107.5,0,215-0.2,322.5,0.3c13,0.1,25.9,4.1,38.9,6.1
		c9.2,1.4,18.4,2.7,27.7,3.5c4.5,0.4,5,4.1,5.9,6.5c2,5.1-3.8,12.4-9.2,11.9c-18.1-1.8-34.9,2.2-51.1,10.1c-4.7,2.3-7.8,4.7-9.8,9.5
		c-6,14.6-12.6,29-19.2,44.1h198.1c0.1-1.1,0.4-2.3,0.5-3.6c0.5-7.5,3.3-9.6,11-10.6c32.7-4.1,65.6-0.9,98.3-2v2
		c-1.7-0.1-3.3-0.3-5-0.3c-31.3,0.4-62.7-1.4-94,1.9c-7.3,0.8-10,4.2-8.3,12.6c1.4,0.1,2.9,0.3,4.3,0.3c25.5,0,51,0.1,76.5,0
		c8.8,0,17.6-0.4,26.4-0.5v2c-1.3,0-2.7,0.1-4,0.1h-203.4c-18.3,0-36.7-0.3-55,0.1s-36.6-2.2-55.2,2.7c2.4,0.2,4.4,0.6,6.3,0.6
		c95.5,0,191,0,286.4-0.1c8.3,0,16.7-0.2,25-0.4v2c-0.5,0-1,0.1-1.5,0.1h-281.3h-36c0,8.1,0.2,15.7-0.1,23.3
		c-0.1,4.1,1.1,5.5,5.4,5.4c16.7-0.2,33.3,0,50-0.1c3.7,0,5,1.2,4.9,4.9c-0.1,18-0.2,36,0,54c0.1,4.7-1.7,5.8-6.1,5.8
		c-16.3-0.2-32.7-0.1-49,0c-5.6,0-5.8,0.4-4.2,6.7h12.8c0,13.3,0,26,0,38.6c0,6.7,0,6.7,6.8,6.7c77.3,0,154.6,0,231.9,0
		c22.1,0,44.3-0.2,66.4-0.3v8h-305c0,4.9,0.1,9.2-0.1,13.5c-0.1,1.2-1.4,3.3-1.9,3.2c-8.9-1.4-18.7,4.4-26.7-3.3
		c-0.3-0.3-1-0.2-1.4-0.3c-7.8-1.5-7.8-1.5-7.6-9.2c0-1.1-0.1-2.2-0.2-3.5h-77.6v18.8h-8.8v-18.7c-0.8-0.2-1.7-0.3-2.5-0.3
		c-25,0-50,0-75-0.1c-3.4,0-4.3,1.2-4.1,4.4s-0.1,6.7,0.1,10s-0.4,5.4-4.4,5.4s-4.1-2.2-4.1-5.1c0.1-4.8,0-9.5,0-14.3h-50.7
		c0,5.4-0.1,10.4,0,15.3c0.1,3.2-1.2,4.5-4.5,4.5c-7-0.1-14-0.2-21,0c-3.5,0.1-4.7-1.4-4.6-4.8c0.2-4.9,0-9.9,0-14.7
		c-6.6-2.3-11.7,0-16.5,3.5c-2.4,1.7-2,3.8,0.2,5.3s4.8,2.7,7.2,3.9c-0.6,1.6-1.3,2.8-1.4,4.2c-0.4,5.3-1.8,6.4-6.9,5
		c-2.4-0.6-4.8-2.1-7.1-2c-5.2,0.1-5.6-0.1-4.8-5.5c0.5-3.1,0.9-6.3,1.5-9.7c-2.5,0-4,0-5.5,0c-3.6,0.1-8.1,1.9-8.4-4.4
		c0-0.3-1.5-1-2-0.8c-0.7,0.3-1.7,1.4-1.6,2c1,6.3-0.7,11.7-5,16.7c-7.8,1-7.8,1-7.8-6.9c0-3.8,0-7.6,0-11.7h-80.6
		c0,3.6,0.6,7.1-0.2,10.2s-2.9,5.6-4.5,8.6c-8.4,1.1-8.4,1.1-8.4-7.4c0-3.8,0-7.5,0-11.4h-79.1c0,3.6,0.4,7-0.1,10.2
		c-0.8,5.6-6.3,0.7-8.5,3.6c-0.9,5.2-0.9,5.3-6.4,5.3c-6.3,0.1-12.7,0-19,0.1c-3.8,0-5.8-1.2-5.5-5.6c0.4-4.5,0.1-9.1,0.1-13.5
		h-51.4c-0.1,1.9-0.3,3.4-0.3,4.9c-0.1,9.3-0.1,9.2-9.8,8.6c-3.1-0.2-4.6-1.2-4.4-4.5c0.2-2.9,0-5.9,0-9.2c-2.1-0.1-3.8-0.3-5.4-0.3
		c-54.7,0-109.3,0-164-0.1H-0.6v-2c61.3,0,122.7,0,184,0h313.5c2.1,0,4.2-0.2,6.7-0.3v-92.3H263.3c3.2,2.3,5.7,4.3,8.5,6
		c1.1,0.5,2.3,0.4,3.3-0.1c9.5-5.5,19.8-3.3,29.8-3c7.3,0.2,14.6,2,22,2.3c5.1,0.2,10.4-1.4,15.5-1.3c18.8,0.7,37.5,1.7,56.3,2.7
		c0.3,0,0.6,0.4,1,0.7c-45.1,0.9-90.1,1.2-135,0.8l-0.2-1.6l1.6-0.8c-3.8-3.5-7.5-6.6-10.8-10c-6.3-6.4-13.8-10-22.7-9.7
		c-10.6,0.4-21.2,1.8-31.8,1.7c-6.9-0.1-12.4,2.5-18.3,5.3c-8,3.9-16.4,6.9-24.7,10.3c-0.6,0.3-1,0.9-1.5,1.4l0.3,1.4H244v1.6H129.1
		c5.3-1.2,10.6-1,15.9-1.3c2.1-0.2,4.1-0.8,5.9-1.8c3.1-1.5,6.1-3.4,8.9-5h-10.4l-150,0.5v-2c49,0,98-0.3,147,0.4
		c15.5,0.2,29.7-1.5,42.4-10.9c0.9-0.8,2-1.2,3.2-1.4c15.2-0.3,30.3-4.5,45.7-1.4c7.4,1.4,14.2,5,19.5,10.4c1.9,1.7,4.3,2.8,6.8,2.9
		c78.5,0.1,156.9,0.2,235.4,0.1c1.3,0,2.6-0.1,4.5-0.2c0.1-1.9,0.3-3.6,0.3-5.4c0.1-31.5,0.7-63,0-94.5c-0.2-8.1-2.1-16.4-2.2-24.8
		c0-0.9-2.5-2.7-3.6-2.5c-6,1.1-8-3.5-10.1-7.1c-2.6-4.4,2.4-10.1,9.8-11.1c-1.8-3-3.9-5.6-5-8.6c-0.8-2.1-1.4-5.7-0.3-6.7
		c2.8-2.6,8-1.3,9.8,1.8c0.3,0.6,0.7,1.1,1,1.7c0.1,0.1,0.3,0.1,1.1,0.3v-115c-6.5,1.1-13,2.2-19.5,3.2
		c-51.3,7.9-102.6,16.1-154,23.4c-31.8,4.5-63.7,8.1-95.7,11.4c-44.6,4.6-89.1,8.9-133.8,12.5c-34,2.8-68.1,4.3-102.2,6.5v-3
		c16.1-1.7,32.1-3.3,48.2-5.2c33.4-4.1,66.8-8.1,100.1-12.7c37.3-5.1,74.6-10.2,111.7-16.5c40.3-6.8,80.5-14.6,120.6-22.7
		c32.5-6.5,64.3-16.2,94.9-29.1c1.8-0.8,3.5-1.6,5.6-2.6c-0.8-1.1-1.5-1.6-1.8-2.3c-0.6-2-1.9-4.6-1.2-5.9c1.7-2.9,4.5-1.7,6.9-0.1
		c6.6,4.6,13.1,9.1,21,14.5c0-4.1,0-7.1,0-10.1c0-4.8,0.3-9.7,0-14.5c-0.3-4.5,2.1-4.9,5.5-4.7c3.1,0.2,6.5-0.6,6.3,4.6
		c-0.3,7.3,0.1,14.7-0.2,22c-0.1,3.5,1,5,4.5,5.6c28.4,4.5,56.7,10.3,85.3,13.5c57.8,6.5,115.6,11.8,173.5,17.5
		c52.1,5.1,104.1,10.1,156.2,15c55,5.2,110.1,10.4,165.2,15.5c42.8,3.9,85.6,7.6,128.4,11.4c48.6,4.3,97.2,8.5,145.9,12.7
		c21.1,1.8,42.2,3.5,63.3,5.2v1c-15.8-1.1-31.6-2-47.3-3.3c-37.8-3.1-75.7-6.4-113.5-9.7c-32.4-2.8-64.7-5.5-97.1-8.4
		c-41.8-3.8-83.6-7.7-125.4-11.5c-33.9-3.1-67.7-6.1-101.5-9.4c-45.1-4.2-90.2-8.6-135.3-12.9c-28.3-2.7-56.7-5.3-85-8.1
		c-29.3-2.9-58.7-5.4-88-8.8c-32-3.7-64-8.2-96-12.6c-10.8-1.5-21.5-3.9-32.3-5.9c-1.5,6.1-1.5,6.1,5.7,8.4c1.3,2.7,1.8,5.8,3.4,6.6
		c7.4,3.5,14.2,8.4,23,9c7.6,0.5,15.1,2.5,22.6,3.8c59.1,9.9,118.1,20.6,177.4,29.4c57.8,8.6,115.8,16.1,173.8,22.6
		c54.6,6,109.4,10.5,164.3,14.4c43.7,3.1,87.5,5.1,131.3,5.8c61.8,1,123.6,0.3,185.4,0.1c11.5,0,22.9-1,34.4-1.5L1439.4,435.5z
		 M592.6,633.7c0,10.8,0.1,21.1,0,31.4c-0.1,11.5-0.1,11.6,11.4,12c3.2,0.1,4.5,1.2,4.4,4.4c-0.2,3.5-0.1,7-0.1,10.5
		c0,6.8,0,13.5,0,20.8h6.7h178.4c6,0,6,0,5.2,6.4l-5.3,1.5c0.9,2.1,1.6,3.9,2.3,5.7c1.2-0.9,3.1-1.5,3.4-2.6
		c2.9-12.1,5.5-24.3,8.2-36.2c-1.1-0.7-1.5-1-1.9-1.2c-0.6-0.3-1.2-0.5-1.9-0.7c-7.3-1.6-8.5-3.9-6.2-11.2c0.4-1.3,0.6-3,0-4
		c-1.7-2.8-0.6-4.5,1.1-6.7c1.1-1.5,2.4-4,1.9-5.3c-1.6-4-0.8-7,2-10c3.8-4,5.7-8.8,4.8-14.8L592.6,633.7z M1110.5,675.3
		c-1.1-2.8-1.8-4.6-2.6-6.4c-0.8-1.8-2.5-3.3-2.5-4.9c-0.2-17.5-0.2-35-0.1-52.5c0-2.9-1.6-7,3.6-7.7c0.3,0,0.8-1.1,0.8-1.7
		c0-8.6,0-17.2,0-26.3c-1.8-0.1-3.5-0.2-5.3-0.2c-47.6,0-95.3,0.1-142.9-0.2c-4.8,0-11.3,3.2-14-4.3c0-0.1-0.3-0.2-0.4-0.2
		c-7.5-3.5-15.7,2.3-15.7,10.5c0.2,25.5,0.2,51,0.1,76.5c0,1.5-1,2.9-1.7,4.3s-2.1,2.9-2.1,4.4c-0.3,13.8-0.4,27.6-0.5,41.4
		c0,1.4,0.2,2.9,0.3,4.4h98c0-2.3,0-4.3,0-6.3c-0.1-32.7-0.3-65.3-0.4-97.9c0-7.7,0.4-8,8.3-8.1c13,0,26,0,39,0
		c8.2,0,8.8,0.4,8.8,8.7c-0.2,32.5-0.4,64.9-0.6,97.4c0,2.1,0.2,4.2,0.3,6.3h16.2v-37.3L1110.5,675.3z M1034.1,564.3
		c2.8,0.9,6,1.1,6.4,2.2c1,3.1,3.1,2.5,5.1,2.5h64.7c-1.6-2.9-3.3-5.6-4.5-8.5c-1.4-3.1-3.7-4.4-6.9-4.9
		c-10.2-1.8-20.3-3.9-30.4-5.6c-19.8-3.3-39.3-8.7-59.7-7.9s-41.3,0.2-62,0.2c-1.8,0-3.7,0.1-5.5,0.4c-26.2,4.9-52.3,9.9-78.5,14.7
		c-3.7,0.7-4.9,2-4.9,5.8c0.2,20.8,0.1,41.7,0.1,62.5c0,1.8,0.2,3.6,0.3,5.7h62.1v-5.2c0-15.3-0.1-30.7,0-46c0.1-7,2.2-9.2,9.2-9.8
		c7.5-0.7,14.9-1.2,22.4-1.2c22.2-0.1,44.3,0,66.5,0c1.5,0,3.2,0,4.3-0.7c2.2-1.3,4.2-3.2,7.1-5.5c-0.1-2-0.1-4,0.1-6.1
		c0.1-0.8,1.2-1.5,1.9-2.2c0.7,0.7,2,1.4,2.1,2.2C1034.2,559.3,1034.2,561.8,1034.1,564.3L1034.1,564.3z M23.4,413.1v0.3
		c2.3,0,4.6,0.1,7,0c21.1-1.4,42.2-2.6,63.3-4.4c43-3.7,86-7.3,128.9-11.6c32.5-3.3,64.9-7.3,97.3-11.5c33.5-4.4,67-9.2,100.4-14.3
		c27-4.1,53.9-8.8,80.8-13.3c1.4-0.2,3.1-0.7,4-1.7c1.8-2.1,0.2-11.5-2.1-13.4c-5.7-4.9-11.5-9.6-17.1-14.6c-2.2-2-3.9-2-6.6-1
		c-21.3,7.6-42.3,16.6-64.2,22c-37.8,9.3-75.9,17.4-114.3,24.2c-48.4,8.6-96.9,15.9-145.6,22.8C111.4,402.6,67.4,407.5,23.4,413.1z
		 M858.1,674.6c1.7,0.1,3.3,0.1,5,0c4.7-0.7,6.5,1,6.3,6c-0.4,8.6-0.2,17.3-0.2,26c0,6.6,0,13.1,0,19.7h48.2l1.3-1.6l-5.5-7.8
		l-3,2.2c0.8-3.7,1.3-7.6,2.5-11.2c1.4-4.3,3.5-8.4,5.2-12.7c0.9-2.2,2.4-4.4,2.4-6.7c0.2-14,0.1-28,0.1-42v-13.1
		c-16.8,0-32.6,0-48.4,0c-4.3,0-10.4-1.4-12.4,0.8c-2.4,2.5-1.4,8.4-1.4,12.8C857.9,656,858.1,665,858.1,674.6z M517.7,633.7
		c-0.2,0.8-0.4,1.6-0.5,2.5c0,28.8,0,57.6,0,86.3c0,3.4,1.5,4.2,4.5,4.2c14.1-0.1,28.3-0.2,42.4,0c3.9,0.1,5.1-1.1,5.1-5
		c-0.2-25.8-0.1-51.6,0-77.4v-10.6H517.7z M568.8,631.5c0.1-1.3,0.3-2.1,0.3-2.9c0-21.5,0.1-43-0.1-64.4c-0.2-2.2-1.3-4.2-3-5.6
		c-15-12.2-30.1-24.2-45.2-36.2c-1.1-0.8-2.3-1.5-3.4-2.1v111.2H568.8z M506.6,526.6c-0.1,1.9-0.2,2.9-0.2,3.9
		c-0.4,68-0.9,136-1.3,204c0,4.5,1.1,6.6,5.8,5.8c1.4-0.2,2.9-0.3,4.5-0.5v-4.9c0-57,0-114,0-171c0-18.5,0-37-0.1-55.5
		c0-1.3-1.1-2.6-1.8-3.9c-0.6,1.3-1.6,2.6-1.7,4c-0.2,4-0.2,8,0,12C511.9,524.1,511.8,527.3,506.6,526.6z M841.9,676.6V746H867
		v-69.4H841.9z M1132.3,676.8c-7.3,0-14.1-0.1-20.8,0.1c-0.9,0-2.6,2-2.6,3.1c-0.1,20.5-0.1,40.9,0,61.4c0.1,0.6,0.3,1.1,0.6,1.7
		h22.9L1132.3,676.8L1132.3,676.8z M573.6,680.3v65.1h23.5v-65.1H573.6z M515.1,303.8c-3.9-0.1-7.6-1.9-7.6,4.3
		c-0.2,52.5-0.6,104.9-1,157.4c0,4.8-0.2,9.7,0.1,14.5c0.2,4.8,2.8,6.5,6.8,4.1c1.2-0.7,1.8-3.2,1.8-4.9c0.1-22.6,0.1-45.2,0-67.8
		c0-2-1.2-4-1.2-6c0.3-7.8,1.1-15.6,1.2-23.4c0.2-24.5,0.1-49,0.1-73.4C515.3,307,515.2,305.4,515.1,303.8z M827.6,633.7
		c-0.2,2.4,0,4.6-0.5,6.6c-1.3,5.3-3.1,10.6,1,15.7c0.7,0.8,0,2.8-0.2,4.3c-0.4,4.1-1.6,8.2-1.2,12.2c1,11.9,2.6,23.8,3.8,35.7
		c0.6,5.9,0.6,11.9,0.9,18h8.7v-51.4l9-0.5v-40.6H827.6z M1154.3,505.4c-10.8-1.1-10.7-1.1-14.3,8c-6.8,17-13.6,34-20.5,50.9
		c-0.6,1.3-1.2,2.5-1.9,3.7l-1.2-0.6c8.2-20.6,16.4-41.2,24.7-61.8l-1.9-0.9c-1,1.7-1.9,3.5-2.7,5.3c-7.2,18.6-14.4,37.3-21.5,55.9
		c-1.1,3-3,6.1-3,9.1c-0.2,32-0.1,64-0.1,96c0,5.4,2.9,4.4,6.3,3.6c0.1-1.4,0.2-2.5,0.2-3.7c0-31.7,0-63.3,0.1-95
		c-0.1-1.6,0.1-3.3,0.7-4.8c5.1-12,10.1-23.9,15.5-35.7C1139.4,524.6,1141.9,512.2,1154.3,505.4z M550.9,504.4l-0.2,0.8
		c1.2,0.8,2.4,1.5,3.8,2c6,1.7,9,5.8,11.2,11.5c5.8,15.4,12.2,30.6,18.2,45.9c0.9,2.5,1.4,5.1,1.4,7.7c0.1,33.6,0.1,67.3,0,100.9
		c0,3.3,0,6.4,5.1,4.4c0.1-1.6,0.3-3.2,0.3-4.8c0-37.5,0-74.9,0-112.4c0-1.5-0.2-3-0.7-4.4c-6.4-16.2-13-32.5-19.6-48.6
		c-0.5-1.3-2.2-2.8-3.4-2.9C561.8,504.2,556.4,504.4,550.9,504.4L550.9,504.4z M1040.4,631.2l1.8,0.1v80.8c3.9,1.2,5.3,0.2,5.3-3.3
		c-0.1-18,0-36-0.1-54c-0.1-1.1-0.3-2.2-0.7-3.2c-0.7-2.1-2.2-4.2-2.3-6.3c-0.3-5.1-0.1-10.2-0.1-15.4h-11.6v82.6h7.8v-81.3
		L1040.4,631.2L1040.4,631.2z M1057.6,651.3v61.2h13.7c0.3-0.5,0.6-0.8,0.6-1.1c0.1-19,0.2-37.9,0.1-56.9c-0.3-1.4-1.4-2.5-2.8-3
		C1065.4,651.1,1061.6,651.3,1057.6,651.3L1057.6,651.3z M851.2,674c5.5,1.6,5-1.7,5-4.6c0-51.3,0.1-102.6,0.1-153.9
		c0.1-2.8,0.1-5.7-0.2-8.5c-0.4-1.1-1.3-1.9-2.4-2.1c-0.8,0-2,1.3-2.4,2.2s-0.1,2.3-0.1,3.5c0,42.3,0,84.6,0,126.9L851.2,674z
		 M517.8,503.9c-1.5,5.5-0.1,8.6,3.8,11.6c11.7,9,23.2,18.4,34.7,27.6c3.1,2.5,6.3,4.9,9.4,7.3c-3-10.3-6.5-20.4-10.6-30.4
		c-0.8-1.4-2-2.5-3.5-3.1c-8.9-4-17.9-7.9-27-11.7C522.5,504.4,520.2,504.4,517.8,503.9z M930.5,571.9c-6.8,0.5-8.4,1.7-8.5,8.7
		c-0.1,28.4-0.1,56.9,0,85.3c0,1.2,1.1,2.4,1.6,3.6c0.7-1.3,1.3-2.6,1.8-3.9c0.5-1.6,0.5-4.6,1.3-4.8c3.5-0.8,2.6-3.4,2.6-5.5
		c0-23.6,0-47.2,0-70.9C929.5,580.4,930.1,576.3,930.5,571.9L930.5,571.9z M1076.8,711.3h1.6v-24.8c0-25.8-0.1-51.6,0.1-77.4
		c0-4.8-1.1-6.7-6.4-6.5c-12.8,0.4-25.7,0.4-38.5,0.1c-4.9-0.1-5.9,1.9-5.9,6.2c0.1,32.8,0.1,65.6,0.2,98.4c0.1,1.5,0.2,3,0.4,4.4
		h1.5c0.1-1.5,0.3-3.1,0.3-4.6c0-32.3,0.1-64.6,0-97c0-4.6,1.3-6.1,6-6c11.3,0.3,22.7,0,34,0c6.8,0,6.8,0,6.8,6.9
		c0,31.7,0,63.3,0,94.9L1076.8,711.3z M1152.3,609.9c-7.7,0-14.5,0-21.3,0c-10.7,0-10.7-0.1-10.8,10.8c0,3.2,0,6.3,0.1,9.5
		c0.1,1.3,0.3,2.7,0.6,4h2.1V612h1.8c0.1,1.6,0.4,3.2,0.4,4.8c0.1,4.8-0.1,9.7,0.2,14.5c0.1,1.1,1.8,2,2.8,3.1c1-1,2.4-1.9,2.9-3.1
		s0.1-3,0.1-4.5v-14.6h1.7c0,1.9,0,3.8,0,5.8c0,4.5-0.1,9,0.2,13.5c0.1,1,1.7,1.9,2.6,2.8c0.7-1,1.7-1.9,1.8-2.9
		c0.2-2.3,0.2-4.7,0.1-7V612h2v22.4l6-0.5v-21.8h1.3c0.1,1.7,0.3,3.4,0.3,5.2c0.1,4.7-0.1,9.3,0.2,14c0.1,1.1,1.4,2,2.2,3.1
		c0.9-0.9,2.5-1.9,2.5-2.8C1152.3,624.5,1152.3,617.6,1152.3,609.9z M781.1,720.4c-0.4-0.2-0.8-0.4-1.2-0.4
		c-25.5-0.1-50.9-0.1-76.3-0.1c-1,0-2.6,0.7-2.8,1.4c-0.4,1.3-0.6,3.5,0.2,4.2c1,0.9,3,1,4.6,1c23.6,0,47.2-0.1,70.9,0.1
		C781.3,726.6,782.4,724.9,781.1,720.4z M816.8,671.7l-2.7-0.3c-1.1,3-2.6,6-3.3,9.1c-3.2,13.4-6,26.9-9.1,40.3
		c-2.9,12.3-3,12.3,10.8,10.3v-29.3l1.5-0.1c0.1,1.5,0.3,3,0.3,4.5c-0.1,8.3-0.4,16.6-0.4,25c0,1.5,0.7,2.9,1.1,4.4l1.4-0.3
		c0-1.1,0-2.2,0-3.3c0.2-15.3,0.4-30.6,0.6-45.8C816.8,681.4,816.8,676.5,816.8,671.7z M608.7,726.3c1.7,0.1,3,0.2,4.3,0.2h70.4
		c2.4,0,4.8,0.3,4.7-3.3c-0.1-3.5-2.3-3.4-4.8-3.4c-14.3,0-28.6,0-42.9,0h-31.6v6.5H608.7z M1107.1,708.5c0-9.2-0.1-18.3,0.1-27.5
		c0.1-3.4-1.4-4.2-4.5-4.3c-3.3-0.1-3.9,1.5-3.9,4.3c0.1,18,0.1,35.9,0,53.9c0,3.4,1.3,4.3,4.4,4.2c3.2-0.1,4-1.2,3.9-4.2
		C1107,726.2,1107.1,717.3,1107.1,708.5z M929.7,543.3l-0.1-0.7h-71.2v14L929.7,543.3z M950.4,572.2c3.4,2.6,155.8,2.7,159.7,0.1
		C1107,569.9,953.8,569.8,950.4,572.2z M1132.8,660.4h-1.7c0-4.7-0.1-9.4,0-14.1c0.1-4-1.4-5.6-6.4-3.6v17.7l-1.4-0.1l-0.8-18.3
		l-2.2,0.1c0,6.2-0.1,12.4,0.2,18.6c0,0.7,2.2,1.7,3.4,1.8c8.3,0.2,16.6,0.2,24.9,0c1.2,0,3.3-1.8,3.3-2.9
		c0.3-5.8,0.2-11.5,0.2-17.3c-3.7-1.1-5.3-0.3-5.2,3.2c0.1,3.7,0.1,7.3,0,11c-0.1,1.4-0.3,2.8-0.7,4.2l-1.4-0.2v-18.7l-6,0.4v18.3
		l-1.5-0.1v-18.1c-4.7-0.4-4.8-0.4-4.8,3C1132.7,650.4,1132.8,655.4,1132.8,660.4L1132.8,660.4z M583.2,631.4v-61.5h-6.5v61.5H583.2
		z M597.7,555.8l66.2-12.5c-19.3-1-38.4-1.1-57.5-1c-1.2,0.1-2.3,0.7-3,1.7C601.5,547.5,599.9,551.2,597.7,555.8L597.7,555.8z
		 M599.5,738.9c6.7,1,6.8,1,6.8-5c0-15.8,0-31.6,0-47.3v-7h-6.8V738.9z M818.3,731.1l0.9,0.9c1-1.3,2.7-2.5,2.9-3.9
		c0.6-4.8,0.9-9.6,1-14.4c0.1-3.4-0.3-6.7-0.4-10.1h1.4v25.8l1.8,0.5c1.1-2.5,3.1-5,3.2-7.5c0.4-8.8,0.2-17.6,0.2-26.4l-2.5,0.8
		c-1.3-1.5-2.6-3.1-3.6-4.8c-1.1-2.5-2.1-5.1-3-7.7l-1.9,0.4L818.3,731.1z M1102.5,554.8c-1.6-3-2.7-4.8-3.5-6.8
		c-1.8-4.4-4.7-5.9-9.6-5.7c-12,0.4-24,0.1-36,0.1h-12c0,0.3,0,0.6,0,1L1102.5,554.8z M572.7,565.4l-1.3,0.2
		c-1.8,14.1-0.6,109.9,2.1,113.4c0.4-2,0.6-4.1,0.8-6.1c0-32.3,0-64.7,0-97C574.2,572.4,573.3,568.9,572.7,565.4z M583.3,678.1
		v-44.4h-6.5v44.4H583.3z M1168.3,631.5c0-5.8,0.5-11.2-0.3-16.3c-0.3-2-3.2-4.3-5.4-5.2s-5.1-0.2-7.9-0.2v21.7H1168.3z
		 M1154.7,642.2v20.4c1.5,0.1,2.7,0.2,3.8,0.2c9.7,0.2,9.7,0.2,9.7-9.7c0-12.3,0-12.3-12.3-11.4
		C1155.5,641.8,1155.1,642,1154.7,642.2z M1122.6,606.8l-0.1,0.8c16.1,0,32.3,0.2,48.4-0.1c4.7-0.1,6.1,1.4,6,5.9
		c-0.2,15.8-0.1,31.7-0.2,47.5c-0.1,1.4-0.3,2.9-0.6,4.3h-55.4c1.4,0.7,1.7,1,1.9,1c17.3,0.1,34.7,0,52,0.2c3.2,0,3.5-1.6,3.5-4.1
		c0-17.2,0-34.3,0.1-51.5c0-3.1-1.2-4-4.1-4C1156.9,606.8,1139.8,606.8,1122.6,606.8L1122.6,606.8z M1057.1,633.7
		c0,4.6,0,8.7,0,12.8c0,3.8,3.1,3.2,5.1,2.8c3.3-0.6,8.3,2.8,9.6-2.6c1-4,0.2-8.5,0.2-13H1057.1z M1054.9,607.3h-0.9v104.4h0.9
		V607.3z M1049.8,711.8h0.9V607.4h-0.9V711.8z M925.3,686.8c-4.7,1.7-11.6,19.2-10.4,25.6h10.4V686.8z M504.5,341.7
		c1.5-5.6,0.8-9-3.8-11.8c-5.8-3.5-11.3-7.7-17-11.4c-1.3-0.9-3-1.1-4.6-1.6l-1.2,2.1L504.5,341.7z M1056.6,612.7
		c0.6,4.3,0.1,10.2,1.9,11.1c3.5,1.7,9,1.7,12.3-0.1c1.9-1,1.1-7,1.5-11H1056.6z M1032.6,624.2h7.3c2.3-5-3.5-13.9,7.3-13.9
		c-0.1-4.5-6-5.6-14.5-3.1L1032.6,624.2z M518.2,514.7l-1.6,1.9l51.9,41.6l1.3-1.6C553.2,542,535.3,528.8,518.2,514.7z M509.8,524.3
		v-19.9h-5.5v19.9H509.8z M689.7,732.5c0,3.3-0.2,6.6,0.1,9.9c0.1,1.1,1.4,2.1,2.2,3.1c0.8-1,2.3-1.9,2.4-2.8
		c0.2-6.6,0.2-13.2,0-19.9c0-1-1.6-1.9-2.4-2.8c-0.8,1-2,2-2.1,3.1C689.6,726.2,689.7,729.3,689.7,732.5z M788.2,720.6
		c-3.3-1.2-4.7-0.3-4.6,3.3c0.2,6,0.1,12,0,17.9c0,3.7,1.5,4.2,4.6,2.8V720.6z M811,673c-2.4-0.2-4.5-0.9-6.3-0.5
		c-2.1,0.5-4.9,1.6-5.7,3.3c-0.9,1.8,0.1,4.5,0.2,6.9l5.9-0.5l1,2.4c0.6-0.3,1.7-0.6,1.8-1.1C809.1,680,810,676.3,811,673L811,673z
		 M1109,608l-0.7-0.1v57.3h0.7V608z M1174.5,609.7l-5.5,0.3c0.4,4,0.8,7.4,0.9,10.8c0.2,3.6-0.1,7.3,0.2,10.9c0.1,0.9,1.3,1.8,2,2.7
		c0.8-0.8,2.3-1.5,2.3-2.3C1174.7,624.9,1174.6,617.6,1174.5,609.7L1174.5,609.7z M1013.8,720.1l-1.5,0.9c0,7.1-0.1,14.2,0.1,21.3
		c0,1,1.4,2,2.2,3.1c0.7-1.1,2-2.2,2-3.3c0.2-6.3,0.2-12.6,0-18.9C1016.6,722.2,1014.8,721.2,1013.8,720.1z M926.3,720.9l-1.3-0.7
		c-0.9,0.9-2.5,1.8-2.5,2.7c-0.2,6.8-0.2,13.6-0.1,20.3c0,0.8,1.3,1.5,2,2.2c0.6-0.8,1.8-1.5,1.8-2.3
		C926.4,735.8,926.3,728.3,926.3,720.9L926.3,720.9z M1170.1,652c-0.1,2.8-0.1,5.6,0.1,8.4c0.1,0.8,1.5,1.8,2.4,2.1
		c0.3,0.1,1.8-1.3,1.9-2.1c0.2-5.4,0.2-10.9,0-16.3c0-0.9-1.4-1.7-2.1-2.5c-0.8,0.8-2.1,1.6-2.2,2.5
		C1170,646.8,1170,649.4,1170.1,652L1170.1,652z M522.7,345.3l-1.4-1.2c-1.2,0.9-3.4,1.7-3.5,2.7c-0.4,3.8-0.4,7.6-0.1,11.5
		c0.4,1.1,1.4,1.9,2.5,2.1c1.1-0.3,2-1.1,2.3-2.2C522.8,353.9,522.7,349.6,522.7,345.3z M505.9,485.7c-3.4-11-4-11.5-11.2-9.9
		C498.3,485.5,499.9,487,505.9,485.7z M1066.3,606.4L1066.3,606.4c-2.3-0.1-4.7-0.1-7,0.1c-1,0.3-1.7,1.1-2,2.1
		c0.2,1,0.9,1.8,1.9,2.1c4.3,0.2,8.6,0.2,12.9,0c0.8,0,1.6-1.5,2.4-2.3c-0.8-0.7-1.5-1.7-2.3-1.9
		C1070.3,606.3,1068.3,606.2,1066.3,606.4z M525.8,351.9c-0.7,5.9,1.8,7.1,9.6,4.1L525.8,351.9z M1024.2,567.2
		c5.4,2.6,12.2,2.4,15,0H1024.2z M819.3,673.8l1.5-0.2l-2-15l-1.4,0.2L819.3,673.8z M1046.3,648.2h0.8v-14h-0.8V648.2z M1057.8,630
		c0,0.3,0,0.7,0,1h13.7l-0.1-1H1057.8z M924.9,671.8h-1.1v12.7h1.1V671.8z M1170.5,638.5c0-0.3,0-0.6,0-0.9h-12.7v0.9H1170.5z"/>
	<path class="st0" d="M1439.4,766.5v43H-0.6v-32c2.1,0.1,4.3,0.4,6.5,0.4c26.2,0.1,52.3,0.1,78.5,0.1c115.2,0,230.3-0.1,345.5-0.1
		c100.2,0,200.3,0,300.5,0.1c131.8,0,263.6,0,395.4-0.1c82,0,164,0,246,0c1.7,0,3.3-0.3,5-0.4c0-0.5,0-1,0-1.5
		c-2.2-0.2-4.3-0.5-6.5-0.5c-97.3,0-194.6,0-291.9,0c-151.6,0-303.3,0-454.9,0c-96,0-192,0-288,0H-0.6v-9c2.3,0.1,4.7,0.2,7,0.2
		h301.4c96.6,0,193.3,0,289.9,0.1c116.6,0,233.3,0,349.9-0.1c72.1,0,144.3,0,216.4,0c57.6,0,115.3,0,172.9,0.1
		C1371.1,766.7,1405.3,766.6,1439.4,766.5z M1379.9,776.2c0,0.4,0,0.8,0,1.2h30v-1.2H1379.9z"/>
	<path class="st0" d="M-0.6,728.5h334.4c54.7,0,109.3,0,164,0.1c1.6,0,3.3,0.2,5.4,0.3c0,3.3,0.2,6.3,0,9.2
		c-0.2,3.3,1.3,4.3,4.4,4.5c9.7,0.6,9.6,0.7,9.8-8.6c0-1.5,0.2-3,0.3-4.9h51.4c0,4.4,0.3,9-0.1,13.5c-0.3,4.3,1.7,5.6,5.5,5.6
		c6.3,0,12.7,0,19-0.1c5.6-0.1,5.6-0.2,6.4-5.3c2.3-2.9,7.7,2,8.5-3.6c0.5-3.2,0.1-6.6,0.1-10.2h79.1c0,3.9,0,7.6,0,11.4
		c0,8.5,0,8.5,8.4,7.4c1.6-3,3.8-5.6,4.5-8.6s0.2-6.5,0.2-10.2h80.6c0,4.1,0,7.9,0,11.7c0,7.9,0,7.9,7.9,6.8c4.3-5,6-10.4,5-16.7
		c-0.1-0.6,0.9-1.7,1.6-2c0.5-0.2,2,0.5,2,0.8c0.4,6.3,4.8,4.5,8.4,4.4c1.5,0,3,0,5.5,0c-0.5,3.4-1,6.6-1.5,9.7
		c-0.8,5.4-0.4,5.6,4.8,5.5c2.4,0,4.7,1.4,7.1,2c5.1,1.3,6.5,0.2,6.9-5c0.1-1.3,0.9-2.6,1.4-4.2c-2.4-1.3-4.9-2.4-7.2-3.9
		s-2.6-3.5-0.2-5.3c4.8-3.5,9.9-5.8,16.5-3.5c0,4.8,0.1,9.8,0,14.7c-0.1,3.4,1,4.8,4.6,4.8c7-0.2,14-0.1,21,0c3.2,0,4.5-1.3,4.5-4.5
		c-0.1-5,0-10,0-15.3h50.7c0,4.8,0.1,9.5,0,14.3c0,2.9,0.1,5.2,4.1,5.1s4.6-2.1,4.4-5.4s0.2-6.7-0.1-10s0.7-4.5,4.1-4.4
		c25,0.1,50,0,75,0.1c0.8,0.1,1.7,0.2,2.5,0.3v18.5h8.8v-18.7h77.6c0.1,1.3,0.2,2.4,0.2,3.5c-0.2,7.8-0.2,7.8,7.6,9.2
		c0.5,0.1,1.1,0,1.4,0.3c8.1,7.7,17.9,1.9,26.7,3.3c0.5,0.1,1.9-2.1,1.9-3.2c0.2-4.3,0.1-8.6,0.1-13.5h305v36c-1.7,0-3.3,0-5,0
		H279.3H-0.6V728.5z"/>
	<path class="st0" d="M-0.6,633.5l150-0.1h10.5c-2.8,1.6-5.8,3.5-8.9,5c-1.8,1-3.9,1.6-5.9,1.8c-5.3,0.3-10.6,0.1-15.9,1.3h114.6
		v-1.6h-87.4l-0.3-1.4c0.5-0.5,0.9-1.2,1.5-1.4c8.2-3.4,16.6-6.4,24.7-10.3c5.9-2.8,11.4-5.4,18.3-5.3c10.6,0.1,21.2-1.3,31.8-1.7
		c9-0.3,16.5,3.3,22.7,9.7c3.3,3.4,7,6.5,10.8,10l-1.6,0.8l0.2,1.6c44.9,0.4,89.9,0.1,135-0.8c-0.3-0.2-0.6-0.7-1-0.7
		c-18.8-1-37.5-2-56.3-2.7c-5.2-0.2-10.4,1.5-15.5,1.3c-7.4-0.3-14.7-2.1-22-2.3c-10-0.3-20.3-2.5-29.8,3c-1,0.5-2.2,0.6-3.3,0.1
		c-2.8-1.7-5.3-3.7-8.5-6h240.2v92.4c-2.5,0.1-4.6,0.3-6.7,0.3H183.4c-61.3,0-122.7,0-184,0C-0.6,726.5-0.6,633.5-0.6,633.5z
		 M246.8,640v1.3H261c0-0.4,0-0.9,0-1.3H246.8z"/>
	<path class="st0" d="M1439.4,433.5c-11.5,0.5-22.9,1.5-34.4,1.5c-61.8,0.2-123.6,0.8-185.4-0.1c-43.8-0.7-87.6-2.7-131.3-5.8
		c-54.8-3.8-109.6-8.4-164.3-14.4c-58.1-6.4-116-13.9-173.8-22.6c-59.3-8.8-118.3-19.5-177.4-29.4c-7.6-1.3-15-3.3-22.6-3.8
		c-8.8-0.6-15.6-5.4-23-9c-1.6-0.8-2.1-3.9-3.4-6.6c-7.3-2.4-7.3-2.4-5.7-8.4c10.7,2,21.4,4.4,32.3,5.9c32,4.4,64,8.9,96,12.6
		c29.3,3.4,58.6,6,88,8.8c28.4,2.8,56.7,5.4,85,8.1c45.1,4.3,90.2,8.6,135.3,12.9c33.8,3.3,67.7,6.3,101.5,9.4
		c41.8,3.9,83.6,7.8,125.4,11.5c32.3,2.9,64.7,5.6,97.1,8.4c37.8,3.2,75.7,6.5,113.5,9.7c15.8,1.3,31.6,2.2,47.3,3.3L1439.4,433.5
		L1439.4,433.5z"/>
	<path d="M-0.6,764.5h279.9h1155.1c1.7,0,3.3,0,5,0v2c-34.2,0.1-68.3,0.2-102.5,0.2c-57.7,0-115.3,0-172.9-0.1
		c-72.1,0-144.3,0-216.4,0c-116.6,0-233.2,0-349.9,0.1c-96.6,0-193.3,0-289.9-0.1H6.4c-2.3,0-4.7-0.1-7-0.2
		C-0.6,766.4-0.6,764.5-0.6,764.5z"/>
	<path d="M-0.6,775.5h335.9c96,0,192,0,288,0c151.6,0,303.3,0,454.9,0c97.3,0,194.6,0,291.9,0c2.2,0,4.3,0.3,6.5,0.5
		c0,0.5,0,1,0,1.5c-1.7,0.1-3.3,0.4-5,0.4c-82,0-164,0-246,0c-131.8,0-263.6,0-395.4,0.1c-100.1,0-200.3,0-300.5-0.1
		c-115.2,0-230.3,0-345.5,0.1c-26.2,0-52.3,0-78.5-0.1c-2.1,0-4.3-0.3-6.5-0.4L-0.6,775.5z"/>
	<path class="st0" d="M1439.4,663.5c-4.6-0.1-9.3-0.3-13.9-0.2c-2.8,0-4.3-0.7-4.2-3.9c0.2-5.4,0-10.9,0-16.2
		c7.8-2.2,8.8-1.6,8.8,5.5c0,2,0,3.9,0,5.8l1.5,0.1c0.4-4.1,0.8-8.2,1.2-12.3l2.3,0.1l0.8,12.1h1.7c-0.1-2.4-0.1-4.8,0.1-7.2
		c0.4-1.7,1-3.4,1.7-5V663.5z"/>
	<path d="M-0.6,295.5c6.8-0.4,13.7-1.6,19.5,3.4c0.3,0.2,0.6,0.3,1,0.2c8.5,0.2,17.1,0.3,25.6,0.6c4.4,0.2,8.9,0.7,13.3,1.3
		c5.1,0.6,10.1,1.6,15.2,2.1c9.9,0.9,19.9,1.5,29.8,2.4c0.8,0.1,1.6,0.8,2.3,2l-17.7-1.8c-4.1-0.4-8.3-0.7-12.4-1.1
		c-6.4-0.7-12.8-1.5-19.2-2.3c-1.5-0.2-2.9-0.9-4.4-0.9c-10.4-0.3-20.7-0.4-31.1-0.6c-0.8,0-1.9,0.3-2.4-0.2
		c-5.9-5-12.6-4.4-19.4-3.2L-0.6,295.5z"/>
	<path d="M-0.6,314.5l16-2.5l0.3,1.5l-16.3,3C-0.6,316.5-0.6,314.5-0.6,314.5z"/>
	<path d="M830.3,192.8c1.9,2.1,4.5,3.6,4.6,5.2c0.2,5.7-3.1,8.6-11,10.9l5.2,1l-0.1,1.3l-9-0.6c-0.1-0.7-0.3-1.4-0.4-2.1
		c2.3-0.6,4.6-1.3,6.8-2.2c1.8-0.8,4.3-1.7,4.8-3.1c0.9-2.3,2.5-5.3-1.4-7.3c-2.5-1.3-1.9-3.4-0.1-5.3c3.2-3.4,7-3.8,11.4-3.7
		c4.1-0.1,8.2-0.3,12.3-0.8c9.5-0.8,19-1.2,28.3-2.6c6.5-1,12.8-3.2,19.3-5c0.7-0.2,1.7-0.9,1.8-1.5c0.9-5.1,4.5-4.4,8.1-3.9
		c6.6,0.9,13.2,2.1,19.8,2.5c6.6,0.3,13.2-0.2,19.7-1.4l-16.5-2.7c0-0.6-0.1-1.2-0.1-1.8c1.5-0.6,2.9-1.6,4.4-1.8
		c3.5-0.4,7-0.4,10.5-0.3c8.2,0.4,15-3.4,22.3-6s15-3.5,22.7-4.6c2.8-0.4,4.8,1.4,1,5.8c8.4-0.7,15.4-1.1,22.4-1.8
		c15.5-1.6,30.8-2.4,46.1,1.7c2,0.6,4.3,0.1,6.4,0.4c1.8,0.2,3.5,0.9,5,2c-4.9,2.7-10.5,3.9-16.1,3.4c-2-0.1-4.1-0.9-5.9-0.4
		c-14,3.6-28.1,0-42.1,0.8c-1.8,0-3.7,0.1-5.4,0.5c-6.2,1.9-12.2,4.1-18.9,3.2c-1.1-0.1-2.3,0.7-3.6,1.2c0.5,0.8,0.7,1.3,0.9,1.3
		c8.3,1.2,16.7,2.9,25.1,3.3c8.5,0.4,17,0,25.4-1c4.2-0.5,8.2-3,11.9-4.5c-2.9,5.1-4.5,6-14.6,6.7c-8.6,0.6-17.2,0.9-25.9,0.9
		c-3.6,0-7.1-1.4-10.7-2.1c-2.3-0.4-4.7-0.7-7-0.9c-1.5-0.1-3.1,0.3-4.4-0.3c-1.3-0.6-2.2-1.6-2.7-2.9c-0.2-0.6,1.4-1.9,2.4-2.6
		c0.7-0.4,1.5-0.7,2.3-0.8c7.6-1.3,15.2-3.3,22.9-3.6c9.9-0.4,19.8,0.5,29.7,0.8c2.6,0.1,5.3-0.2,7.9-0.3c4.6-0.3,9.2-0.5,13.8-0.9
		c3.8-0.2,7.6-1,11.2-2.2c-12.4-0.9-24.8-2.4-37.2-2.5c-9.4-0.1-18.9,1.6-28.3,2.2c-3.5,0.2-6.9-0.1-10.3-0.8
		c-1.1-0.2-1.8-2.1-2.7-3.3c0.1-0.8,0.3-1.5,0.4-2.2c-7.5,2.2-14.9,4.4-22.4,6.4c-7,1.9-14,3.8-21.1,5.2c-3.2,0.6-6.6,0.1-10,1.1
		l18,2l0.5,1.4c-2.4,1-4.9,1.9-7.4,2.6c-12.7,2.8-25.2,0.9-37.7-1.2c-3.3-0.6-7.2-2.4-7.9,3.4c-0.1,0.6-1.5,1.1-2.4,1.5
		c-11,4.3-22.4,6-34.2,6.4c-5.8,0.2-11.5,1.6-17.3,2.1c-3.8,0.3-7.6,0.3-11.4,0C835.7,188.1,832.2,189.7,830.3,192.8z"/>
	<path d="M346.9,211.7c-3.2-0.3-6.3-0.5-9.5-0.8c-10.6-1-21.1-2.6-31.7-2.8c-22.5-0.4-44.9-0.1-67.4,0.2c-5.8,0.1-11.6,0.5-17.4,1.4
		c-17.1,2.6-33.8-1.1-50.6-3.4c-8.1-1.1-16.2-1.3-24.3-2.4c-4.2-0.5-8.2-2.3-12.4-2.9c-10-1.5-20-3-30-3.6
		c-5.7-0.4-11.6,1.1-17.4,1.5c-2.5,0.1-5-0.5-8.8-0.9c5-5.6,9.8-7.8,15.6-8.5c7.1-0.8,14.1-2.2,21.1-2.9c6.4-0.6,13-0.3,19.4-1.2
		c6.2-0.9,12.3-2.7,18.4-4.3c3.9-0.9,7.7-2,11.5-3.1c4.1-1.2,8.1-2.7,12.2-4c1.1-0.3,2.2-0.5,3.3-0.7l0.5,1.3
		c-3.9,1.6-7.8,3.4-11.9,4.6c-5.9,1.8-11.8,3.3-17.8,4.4c-8.1,1.5-16.3,2.7-24.5,3.9c-4.9,0.7-9.8,1.2-14.8,1.8
		c-5.6,0.7-11.1,1.7-16.8,2c-4.6,0.1-8.8,2.3-11.5,6c1.5-0.1,3.1-0.2,4.6-0.4c13.3-2.2,26.5-1.8,39.8-0.2c0.7,0,1.3,0.2,1.9,0.5
		c10.2,6.4,21.9,4.4,33,5.9c10.4,1.5,20.7,3.7,31.1,4.4c9.9,0.7,19.9,0.2,29.9,0c16.6-0.4,33.2-1.1,49.9-1.4c9.3-0.2,18.7,0,28,0.4
		c15.5,0.6,31.1,1.6,46.6,2.4C346.9,209.8,346.9,210.7,346.9,211.7z"/>
	<path d="M546.1,279.6c-1.1-4.5,2.6-3,4.3-3.2c11.4-1,22.8-1.5,34.2-2.8c4.6-0.5,9.1-2.5,13.5-4.3c2.9-1.2,5.6-2.6,8.3-0.3
		c3.8,3.2,8,2.7,12.3,2c2.8-0.3,5.6-0.9,8.3-1.8c14.8-5.6,30.3-1.6,45.4-3.5c2.9-0.4,6,1.5,9,2.4l5.8,1.6c0.7-3,0.7-6.8,2-7.3
		c2.3-0.9,5.4,0,8.2,0.3c2.1,0.2,4.1,0.8,6.2,1.1c1.5,0.3,3.5,0,4.5,0.9c0.6,0.6-0.2,2.8-0.4,4.5c2.2-0.4,4.9-0.3,7-1.4
		c5.4-2.7,10.6-1.9,16,0c7,2.5,14.3,4.1,20.3,9.1c2,1.6,6,0.6,9,1.4c2,0.5,3.7,1.9,5.5,2.9c-1.7,1-3.3,2.7-5.1,3
		c-4,0.6-8.2,0.6-12.3,0.8c0-0.5-0.1-1-0.1-1.5l15-1.5c0-0.6,0-1.1,0-1.7c-1.5-0.1-3.1-0.6-4.5-0.2c-4.8,1.2-8-1.7-12-3.5
		c-7.8-3.5-15.8-7.2-24.1-8.7c-5.4-0.9-11.5,2-17.4,3c-2,0.2-4.1,0.2-6.1,0.1c-0.1-0.5-0.3-1.1-0.4-1.7l6.8-3
		c-3.6-1.2-7.3-2.5-11-3.5c-1.3-0.3-3.8,0-4,0.6c-0.5,1.8-0.2,3.8-0.2,6.9c-1.5,1.8-4.6,1.4-7.2,0c-7.4-4-15.1-3.4-22.9-2.3
		c-1,0.2-2,0.3-3,0.2c-13.3-2.7-25.6,2-38.3,4.4c-4.5,0.9-8.8,0.8-12.9-1.9c-1.5-1-4.9-1.2-6.2-0.3c-7.4,5.5-15.9,4.7-24.4,5.3
		c-9.8,0.6-19.5,2.4-29.3,3.6L546.1,279.6z"/>
	<path d="M1099.4,203.6c-7.9-1.6-15.8-3.7-23.8-4.7s-16.2-1-24.3-1.6c-1.3-0.2-2.6-0.5-3.8-1c0-0.5,0-1,0-1.6
		c1.8-0.4,3.5-1.3,5.2-1.2c7.6,0.2,15.2,0.9,22.8,0.9c11.1,0,22.2-0.6,33.2-1.8c-7.3-3.6-14.2-7.4-22.4-6.7c-1.5,0.1-3.1,0.5-4.5,0
		c-10.6-3.8-21.1-7.8-32.3-11.9c1.3-1.1,1.6-1.5,1.7-1.5c7.3,2.9,14.6,6,22,8.6c4.5,1.5,9.2,2.2,13.9,3.1c4.7,0.9,9.2,1.4,13.7,2.3
		c3.4,0.8,6.7,1.7,10,2.8c1.1,0.4,2.1,1.2,2.7,2.3c-11.7,5.1-23.9,5.3-36.4,6.2c11.3,1.1,22.6,2,33.8,3.5c4.9,0.7,9.7,2.6,14.4,4.8
		c-5.4,4.1-10.8,3.4-16.4,0.2l11.6,1.1c-6.5-5.9-14-3.7-21.3-4L1099.4,203.6z M1072.1,197.4l0.1-1.9l-11-1.1l-0.2,1.3L1072.1,197.4z
		"/>
	<path d="M184.4,174c18,7,36.5,3.3,54.4,5.1c5.3,0.5,10.8-1.6,16.2-2.5c3.8-0.6,7.5-1.5,11.3-1.8c3-0.2,6.1,0.5,7-3.6
		c0.2-0.8,1.8-1.5,2.8-1.7c19.7-2.8,39.5-2.5,59.2-1.5c1.3,0.1,2.5,1.5,3.7,2.3c-1.4,0.7-2.7,1.9-4.1,2.1c-7,0.7-14.1,1.2-21.2,1.7
		l12.6,1.1l-0.2,1.4c-6.3-0.3-12.8,0.8-18.7-2.5l0.1-1.6l26.9-1.8l-0.1-1.8l-59.7,1.6c1.1,6.4-2.6,5.9-6.1,6.1
		c-3.6,0.2-7.5,0.1-10.9,1.2c-9.4,3-18.9,3.3-28.6,2.7c-12.4-0.8-24.9-1.1-37.3-2.1C189.3,178.1,186.9,175.5,184.4,174z"/>
	
		<linearGradient id="SVGID_2_" gradientUnits="userSpaceOnUse" x1="1179.9999" y1="607.0049" x2="1400.6" y2="607.0049" gradientTransform="matrix(1 0 0 -1 0 810)">
		<stop  offset="0.4358" style="stop-color:#000000"/>
		<stop  offset="0.4951" style="stop-color:#003238"/>
		<stop  offset="0.5544" style="stop-color:#005E68"/>
		<stop  offset="0.6106" style="stop-color:#00808E"/>
		<stop  offset="0.6623" style="stop-color:#0098A9"/>
		<stop  offset="0.7081" style="stop-color:#00A7B9"/>
		<stop  offset="0.743" style="stop-color:#00ACBF"/>
		<stop  offset="1" style="stop-color:#FFFFFF"/>
	</linearGradient>
	<path class="st2" d="M1400.4,202.1c-5.8-0.7-11.7-1.8-17.5-2.1c-21.5-1.3-42.9-1.4-63.7,6.1c-2.5,0.9-5.5,0.5-8.3,0.4
		c-3.6-0.2-7.2-0.9-10.8-0.9c-16.1-0.2-32.2-0.5-48.4-0.2c-12.1,0.3-24.2,1.2-36.3,2.3c-7.2,0.7-14.3,2.3-19.3-5.1
		c-0.4-0.7-2.4-0.6-3.6-0.4c-4.1,0.6-8.1,1.3-12.2,2c-0.1-0.4-0.2-0.8-0.3-1.3c5.4-1.1,10.9-2.2,16.3-3.1c0.7,0,1.3,0.4,1.6,0.9
		c2.1,7.9,9,6.8,13.9,5.7c20.7-4.6,41.4-2.6,62.2-1.5c8.6,0.5,17.2-0.6,25.9-0.9c2.6-0.1,5.5-0.6,7.9,0.2c5.3,1.8,10,0.6,15-1
		c16-5,32.8-6.6,49.4-4.9c8.6,0.8,17.2,1.5,25.8,2.3c0.9,0.2,1.8,0.4,2.6,0.8L1400.4,202.1z"/>
	<path d="M1289.4,183.4l-4.5-5.4l16.9-1.8c0.1,0.5,0.1,0.9,0.2,1.4l-14.8,1l4.6,4.3c0,0.5-0.1,1-0.1,1.5c-2.2,0.1-4.3,0.1-6.5,0
		c-8.7-1.1-17.3-2.4-26-3.5c-1-0.2-2,0-2.9,0.4c-9.5,6-19.7,4.1-29.6,2.5c-16.8-2.7-32.8-1.6-47.9,7c-5.2,3-10.5,5.7-16,8.1
		c-2.7,1.1-6,0.7-9.1,0.9c-3.3,0.2-6.5,0.3-9.9,1.6c8.4,2.8,17.2,2.9,26,2.5c0,0.6,0,1.2,0,1.8c-5.5,0-11,0.1-16.5,0
		c-2.8,0-5.6-0.3-8.4-1c-1.3-0.4-2.1-2.2-3.2-3.4c1.2-0.9,2.3-2.5,3.6-2.7c3.1-0.4,6.3-0.5,9.5-0.2c6,0.5,10.4-2.1,15.3-5.3
		c6.7-4.3,14.6-7.2,22.3-9.5c13.2-4,26.7-2.5,40.1-0.5c7.4,1.1,14.8,1.8,21.8-2.5c2-0.9,4.2-1.3,6.3-0.9c8.5,1.1,17,2.5,25.5,3.7
		C1287.3,183.5,1288.3,183.5,1289.4,183.4z"/>
	
		<linearGradient id="SVGID_3_" gradientUnits="userSpaceOnUse" x1="928.2001" y1="600.6336" x2="1106.1001" y2="600.6336" gradientTransform="matrix(1 0 0 -1 0 810)">
		<stop  offset="0.4358" style="stop-color:#000000"/>
		<stop  offset="0.4951" style="stop-color:#003238"/>
		<stop  offset="0.5544" style="stop-color:#005E68"/>
		<stop  offset="0.6106" style="stop-color:#00808E"/>
		<stop  offset="0.6623" style="stop-color:#0098A9"/>
		<stop  offset="0.7081" style="stop-color:#00A7B9"/>
		<stop  offset="0.743" style="stop-color:#00ACBF"/>
		<stop  offset="1" style="stop-color:#FFFFFF"/>
	</linearGradient>
	<path class="st3" d="M1099.3,203.5l6.8,3.1c-0.8,0.4-1.2,0.9-1.5,0.8c-10.7-3.5-20.5,1.6-30.7,3.2c-3.4,0.6-6.9,0.9-10.4,0.9
		c-4-0.1-8-1.3-10.8,3c-0.4,0.7-2.1,0.8-3.2,0.7c-10.6-1.2-21-3.1-31.6-3.7c-17-1-34.1-1.9-51.2-1.5c-12,0.3-24,2.8-36,4.4
		c-0.9,0.2-1.9-0.2-2.5-0.9c5.9-1.3,11.7-3.2,17.6-3.6c15.4-1.1,30.9-2.5,46.3-2.1c17.1,0.4,34.1,2.7,51.1,4.2
		c1.8,0.2,3.5,1.1,5.3,1.2c1.5-0.1,2.9-0.5,4.2-1.2c1.7-0.7,3.6-2.6,5-2.3c11.7,2.1,22.2-3,33.3-4.7c2.8-0.4,5.6-0.8,8.3-1.2
		L1099.3,203.5z"/>
	<path d="M504.8,198.4c-1.7-0.2-3.3-0.2-5-0.5c-4.1-0.7-8.1-1.6-12.1-2.7c-2.4-0.7-5.2-1.9-6.7-3.8c-2.5-3.1-5.4-4-9.1-3.9
		c-23.1,0.7-46.1-2.1-69.1-4c-8.7-0.7-17.3-3.2-25.7-5.7c-7-2.1-13.7-1.8-20.7-1s-14,0.8-21,1.1l-0.2-1.8c0.5-0.3,0.9-0.5,1.5-0.6
		c7.8-0.4,15.6-1,23.3-1c5.6,0,11.2,0.5,16.8,1.4c16.6,2.8,32.7,8.4,50.1,7.6c9.7-0.4,19.5,1.8,29.3,2.5c4.2,0.2,8.3,0.1,12.5-0.3
		c5.6-0.3,10.9-0.5,14.6,5.2c0.9,1.4,3.7,1.9,5.8,2.4c5.4,1.3,10.8,2.4,16.2,3.6L504.8,198.4z"/>
	<path d="M481,208.1c-1.8-0.1-3.8,0.2-5.4-0.4c-7.6-3.3-15.2-2.7-23.3-1.4c-10.8,1.8-21.8,1.9-32.7,3.1c-8.3,0.9-16.4,2.9-24.6,3.5
		c-11.7,0.8-23.5,0.8-35.3,1.1c-0.9-0.1-1.7-0.6-2.1-1.4c4.2,0,8.4,0.2,12.5,0c9.6-0.6,19.1-1.3,28.7-2.1
		c13.6-1.2,27.1-2.4,40.7-3.9c5.8-0.5,11.5-1.5,17.1-2.9c5-1.3,9.6-1.6,14.5,0.6c3,1.4,6.5,1.8,9.8,2.6L481,208.1z"/>
	<path d="M741.7,283.6c-5.1-1-9,0.7-13.5,3.1c-3.4,1.8-8.4,0.7-12.6,0.7c-9.9,0.2-19.9,0.3-29.8,0.5c-4.8,0.1-9.6,0.2-14.4,0.5
		c-3.8,0.2-7.5,0.5-11.2,0.8c-1,0.2-2,0.2-2.9,0.1c-6.8-1.5-13.5-3.4-20.1-5.7c3.7,0.4,7.5,0.1,11,1.2c12.9,4,25.9,2,38.8,1.1
		c11-0.7,21.8-1.3,32.8-0.1c3.5,0.4,7.8-0.9,11-2.8C734.7,280.6,738,281.9,741.7,283.6z"/>
	<path d="M831.4,210.2c3-1.4,5.9-2.9,9-4c1.5-0.6,3.4-1.2,4.8-0.8c10.9,3.7,22.1,4.1,33.4,4.8c2.3,0.1,4.6,0.5,6.9,1.2
		c10.1,3.4,20.3,4.8,30.9,3.2c1.3-0.2,2.7-0.2,4-0.1c0.2,0,0.5,0.3,1.5,1.1c-8.8,1.1-17,2.9-25.1,0.6c-10.9-3.1-22.1-4.8-33.4-4.9
		c-5-0.2-9.9-1.1-14.6-2.8c-3.8-1.2-6.9-1.3-10.3,0.9c-1.9,1.2-4.5,1.4-6.8,2C831.5,210.9,831.4,210.6,831.4,210.2z"/>
	<path d="M1049.3,271.6c-0.4,0.2-0.8,0.6-1.2,0.6c-14.3-0.2-28,4.3-42.2,5.2c-1.6,0-3.2-0.3-4.7-0.9c-4.4-1.4-8.7-2.9-13-4.3
		l-0.7,1.6l18.3,9.7c-0.2,0.1-0.7,0.5-1,0.4c-6-2.7-12.1-5.3-18-8.2c-0.9-0.8-1.3-2.1-1.1-3.3c0.4-0.8,2.3-1.4,3.4-1.2
		c3,0.4,6.3,0.5,8.7,1.9c7.1,4.1,14.2,1.9,21.3,0.9c10-1.3,20-2.8,30-4.2L1049.3,271.6z"/>
	<path d="M110.2,307c0.1,0.3,0.6,1.3,0.3,1.9c-0.5,0.9-1.3,1.5-2.3,1.6c-8.4,0.3-16.3,5-24.9,2.3c-9.6-3-18.8,1.2-28.2,1.2
		c-10.7,0-21.4,0-32.1,0v-1.5c4.9,0,9.8,0.2,14.7,0c10.5-0.5,20.9-1.3,31.4-1.7c4.8-0.2,9.6,0,14.3,0.5c4.3,0.5,8.3,1.4,12.6-0.7
		c2.2-1.1,5.3-0.4,7.9-0.9C105.8,309.3,107.6,308.2,110.2,307z"/>
	<path d="M546,279.8c10.5,2.9,21,4.3,31.8,1.2c16.1,3.6,32.5,2.9,48.8,2.5c1.3,0.1,2.5,0.3,3.7,0.6c-2.1,0.7-2.9,1.2-3.7,1.2
		c-14.5-0.5-28.9-1.2-43.3-1.6c-4.9-0.2-9.9,0-14.8,0.7c-8.1,1.1-15.4-0.1-22.3-4.7L546,279.8z"/>
	<path d="M1164.1,251.4l-31.1,6.2c-0.2-0.6-0.4-1.3-0.6-1.9c1.6-0.9,3.1-2.1,4.8-2.7c5.2-1.6,10.6-2.9,15.8-4.6
		c4.1-1.3,8-3.2,11.9-4.8c1.4-0.6,2.8-1.9,4-1.8c1.5,0.2,2.9,1.5,4.4,2.4c-0.9,1.2-1.5,2.8-2.7,3.5c-1.5,0.8-3.2,0.9-4.8,0.4l7-3.5
		c-4.9-2.4-6.9,1-9.6,2.1c-3.2,1.3-6.5,2.4-9.9,3.3c-3.2,0.9-6.4,1.5-9.4,3.4l19.8-3.6C1163.8,250.4,1163.9,250.9,1164.1,251.4z"/>
	<path d="M512,199.3l-3.4-2.4c1.1-0.3,1.8-0.7,2.5-0.6c1.5,0.5,2.9,1,4.3,1.7c-1.3,1-2.5,2.9-3.8,3c-7.4,0.4-14.9,0.4-22.3,0.5
		c-2.3,0-4.5,0-7.4,0c4.9,3.2,4.9,3.2,3.1,5.9l-7.9-6C488.9,196.9,500.2,201.5,512,199.3z"/>
	<path d="M1056,270.9c-0.7,1.1-1.3,2.8-2.3,3.1c-5,1.6-10.1,4-15.2,4c-6.6,0.1-12.3,2-18.1,4.7c-3.5,1.6-7.1,3.4-11.1,0.9
		c1.3-0.1,2.7,0.2,3.8-0.3c11.1-5.8,23.4-6.5,35.4-8.7c2.3-0.4,4.2-2.4,6.3-3.7H1056z"/>
	<path d="M1352.9,182c-9.8-4.6-20-3.3-30.3-2.3c-5.3,0.4-10.6,0.3-15.9-0.4c9.4-0.6,18.7-1.5,28.1-1.6c5.2,0,10.4,1.3,15.6,2.2
		C1351.3,180.1,1352,181.3,1352.9,182L1352.9,182z"/>
	<path d="M1109.6,263.3l18.2-3.4c-5.1,5.6-12.8,2.8-19.6,6.6c1-1.9,1.3-2.6,1.6-3.3L1109.6,263.3z"/>
	<path d="M1352.8,182c10.4-2.3,20.6-1.7,30.2,3.2c-1.6-0.2-3.7,0-5.3-0.8c-5.5-2.8-11.8-3.5-17.9-2.2
		C1357.6,182.7,1355.2,182.1,1352.8,182L1352.8,182z"/>
	<path d="M1109.8,263.1l-1.8-0.2c0.4-0.8,0.6-2.1,1.2-2.3c5.3-1.6,10.6-3,15.9-4.4c0.1,0.4,0.3,0.9,0.4,1.3c-4.7,1.3-9.4,2.6-14.1,4
		c-0.7,0.2-1.2,1.1-1.8,1.8L1109.8,263.1z"/>
	<path d="M788.9,448.2c0.3-0.9,0.6-1.9,1.1-3.2c0.8-0.2,2.6-0.7,4.4-1c0.9-0.1,2.1-0.4,2.7,0.1c0.6,0.7,0.8,1.7,0.6,2.5
		c-0.3,0.9-1.1,1.6-2,1.8C793.4,448.5,791.2,448.4,788.9,448.2z"/>
	<path class="st0" d="M592.6,633.7h214.6c0.9,6-1,10.8-4.8,14.8c-2.8,3-3.6,5.9-2,10c0.5,1.3-0.8,3.9-1.9,5.3
		c-1.7,2.2-2.8,3.9-1.1,6.7c0.6,1,0.4,2.8,0,4c-2.3,7.3-1,9.6,6.2,11.2c0.6,0.2,1.3,0.4,1.9,0.7c0.4,0.2,0.8,0.5,1.9,1.2
		c-2.7,12-5.3,24.1-8.2,36.2c-0.3,1.1-2.2,1.8-3.4,2.6c-0.7-1.8-1.5-3.5-2.3-5.7l5.3-1.5c0.8-6.4,0.8-6.4-5.2-6.4H615h-6.7
		c0-7.2,0-14,0-20.8c0-3.5-0.1-7,0.1-10.5c0.1-3.2-1.1-4.3-4.4-4.4c-11.5-0.3-11.5-0.5-11.4-12C592.6,654.8,592.6,644.5,592.6,633.7
		z"/>
	<path class="st0" d="M1034.1,564.3c0.1-2.5,0.1-4.9-0.1-7.4c-0.1-0.8-1.3-1.5-2.1-2.2c-0.7,0.7-1.8,1.4-1.9,2.2
		c-0.1,2-0.2,4-0.1,6.1c-3,2.3-4.9,4.2-7.1,5.5c-1.2,0.7-2.9,0.7-4.3,0.7c-22.2,0-44.3-0.1-66.5,0c-7.5,0-15,0.6-22.4,1.2
		c-7,0.6-9.1,2.8-9.2,9.8c-0.1,15.3,0,30.7,0,46v5.2h-62.1c-0.1-2.1-0.3-3.9-0.3-5.7c0-20.8,0.1-41.7-0.1-62.5
		c0-3.8,1.2-5.1,4.9-5.8c26.2-4.8,52.4-9.8,78.5-14.7c1.8-0.3,3.6-0.4,5.5-0.4c20.7,0,41.3,0.6,62-0.2s39.9,4.6,59.7,7.9
		c10.2,1.7,20.3,3.8,30.5,5.6c3.2,0.5,5.5,1.8,6.9,4.9c1.3,2.9,2.9,5.6,4.5,8.5h-64.7c-2,0-4.1,0.6-5.1-2.5
		C1040.2,565.3,1036.9,565.2,1034.1,564.3z"/>
	<path class="st0" d="M23.4,413.1c44-5.6,88-10.5,131.8-16.7c48.6-6.9,97.2-14.2,145.6-22.8c38.4-6.8,76.4-14.9,114.3-24.2
		c21.9-5.4,42.9-14.4,64.2-22c2.8-1,4.4-0.9,6.6,1c5.5,5,11.4,9.7,17.1,14.6c2.3,2,3.9,11.3,2.1,13.4c-0.8,1-2.6,1.5-4,1.7
		c-26.9,4.5-53.8,9.2-80.8,13.3c-33.4,5.1-66.8,9.9-100.3,14.3c-32.4,4.2-64.8,8.3-97.2,11.5c-42.9,4.3-85.9,8-128.9,11.6
		c-21.1,1.8-42.2,3-63.3,4.4c-2.3,0.1-4.6,0-7,0L23.4,413.1z"/>
	<path class="st0" d="M858.1,674.6c0-9.6-0.1-18.6,0-27.5c0.1-4.4-0.9-10.3,1.4-12.8c2.1-2.2,8.1-0.8,12.4-0.8c15.8,0,31.6,0,48.4,0
		v13c0,14,0.1,28-0.1,42c0,2.2-1.5,4.5-2.4,6.7c-1.7,4.2-3.8,8.3-5.2,12.7c-1.2,3.6-1.7,7.5-2.5,11.2l3-2.2l5.5,7.8l-1.3,1.6H869
		c0-6.6,0-13.1,0-19.7c0-8.7-0.2-17.3,0.2-26c0.2-5-1.6-6.6-6.3-6C861.4,674.6,859.7,674.7,858.1,674.6z"/>
	<path class="st0" d="M517.7,633.7h51.5v10.5c0,25.8-0.1,51.6,0,77.4c0,4-1.1,5.1-5.1,5c-14.1-0.2-28.3-0.1-42.4,0
		c-3.1,0-4.5-0.8-4.5-4.2c0.1-28.8,0-57.6,0.1-86.3C517.3,635.2,517.4,634.4,517.7,633.7z"/>
	<path class="st0" d="M568.8,631.5h-51.4V520.1c1.2,0.6,2.3,1.3,3.4,2.1c15.1,12,30.2,24,45.2,36.2c1.7,1.4,2.8,3.4,3,5.6
		c0.2,21.5,0.1,43,0.1,64.4C569.2,629.3,569,630.1,568.8,631.5z"/>
	<path class="st0" d="M506.6,526.6c5.2,0.6,5.4-2.5,5.2-6.2c-0.2-4-0.2-8,0-12c0.1-1.4,1.1-2.6,1.7-4c0.6,1.3,1.8,2.6,1.8,3.9
		c0.1,18.5,0.1,37,0.1,55.5c0,57,0,114,0,171v4.9c-1.7,0.2-3.1,0.3-4.5,0.5c-4.7,0.8-5.8-1.3-5.8-5.8c0.5-68,1-136,1.3-204
		C506.4,529.5,506.5,528.5,506.6,526.6z"/>
	<path class="st0" d="M842,676.7h25.1v69.4H842V676.7z"/>
	<path class="st0" d="M1132.3,676.8v66.3h-22.9c-0.3-0.5-0.4-1.1-0.6-1.7c0-20.5-0.1-40.9,0-61.4c0-1.1,1.6-3.1,2.6-3.1
		C1118.2,676.7,1125,676.8,1132.3,676.8z"/>
	<path class="st0" d="M573.6,680.3h23.5v65.1h-23.5V680.3z"/>
	<path class="st0" d="M515.1,303.8c0.1,1.6,0.2,3.2,0.2,4.8c0,24.5,0.1,49-0.1,73.5c0,7.8-0.9,15.6-1.2,23.4c-0.1,2,1.2,4,1.2,6
		c0.1,22.6,0.1,45.2,0,67.8c0,1.7-0.6,4.2-1.8,4.9c-4,2.4-6.6,0.8-6.8-4.1c-0.2-4.9-0.1-9.7-0.1-14.5c0.4-52.5,0.8-104.9,1-157.4
		C507.5,301.9,511.2,303.7,515.1,303.8z"/>
	<path class="st0" d="M827.6,633.7H849v40.6l-9,0.5v51.4h-8.7c-0.3-6.2-0.3-12.1-0.9-18c-1.1-11.9-2.8-23.8-3.8-35.7
		c-0.3-4,0.8-8.1,1.2-12.2c0.2-1.5,0.9-3.4,0.2-4.3c-4-5.1-2.3-10.3-1-15.7C827.6,638.3,827.5,636.1,827.6,633.7z"/>
	<path class="st0" d="M1154.3,505.4c-12.4,6.8-15,19.2-19.8,30c-5.3,11.8-10.4,23.8-15.5,35.7c-0.5,1.5-0.8,3.2-0.7,4.8
		c0,31.7-0.1,63.3-0.1,95c0,1.1-0.2,2.3-0.2,3.7c-3.4,0.8-6.3,1.8-6.3-3.6c0.1-32-0.1-64,0.1-96c0-3,1.8-6.1,3-9.1
		c7.1-18.7,14.3-37.3,21.5-55.9c0.8-1.8,1.7-3.6,2.7-5.3l1.9,0.9c-8.2,20.6-16.4,41.2-24.6,61.8l1.2,0.6c0.7-1.2,1.4-2.4,1.9-3.7
		c6.9-17,13.7-34,20.5-50.9C1143.6,504.3,1143.6,504.2,1154.3,505.4z"/>
	<path class="st0" d="M550.9,504.4c5.4,0,10.8-0.2,16.2,0.1c1.2,0.1,2.8,1.6,3.4,2.9c6.7,16.2,13.2,32.4,19.6,48.6
		c0.5,1.4,0.7,2.9,0.7,4.4c0,37.5,0,74.9,0,112.4c0,1.6-0.2,3.3-0.3,4.8c-5.1,2-5.1-1.1-5.1-4.4c0-33.6,0-67.3,0-100.9
		c0-2.6-0.5-5.3-1.4-7.7c-6-15.3-12.4-30.5-18.2-45.9c-2.2-5.7-5.2-9.8-11.2-11.5c-1.3-0.5-2.6-1.2-3.8-2L550.9,504.4z M586.6,564.8
		l1.7-0.7c-7.5-18.8-15.1-37.5-22.7-56.3l-1.6,0.7L586.6,564.8z"/>
	<path class="st0" d="M1040.4,631.2v81.3h-7.8v-82.6h11.6c0,5.2-0.2,10.3,0.1,15.4c0.2,2.1,1.6,4.2,2.3,6.3c0.4,1,0.7,2.1,0.7,3.2
		c0,18,0,36,0.1,54c0,3.5-1.3,4.5-5.3,3.3v-80.8L1040.4,631.2z"/>
	<path class="st0" d="M1057.6,651.3c4,0,7.8-0.2,11.6,0.1c1.4,0.5,2.4,1.6,2.8,3c0.1,19,0,37.9-0.1,56.9c0,0.3-0.3,0.6-0.6,1.1
		h-13.7L1057.6,651.3L1057.6,651.3z"/>
	<path class="st0" d="M851.2,674v-36.5c0-42.3,0-84.6,0-126.9c0-1.2-0.3-2.5,0.1-3.5c0.4-1,1.5-2.2,2.4-2.2c1.1,0.2,2,1.1,2.4,2.1
		c0.2,2.8,0.3,5.6,0.2,8.5c0,51.3,0,102.6,0,153.9C856.3,672.3,856.7,675.6,851.2,674z"/>
	<path class="st0" d="M517.8,503.9c2.4,0.5,4.8,0.5,6.8,1.3c9,3.8,18,7.7,27,11.7c1.5,0.6,2.7,1.7,3.5,3.1
		c4.1,9.9,7.6,20.1,10.6,30.4c-3.1-2.5-6.3-4.9-9.4-7.3c-11.5-9.2-23-18.6-34.7-27.6C517.7,512.5,516.3,509.4,517.8,503.9z"/>
	<path class="st0" d="M1076.8,711.3V706c0-31.6,0-63.3,0-94.9c0-6.9,0-6.9-6.8-6.9c-11.3,0-22.7,0.3-34,0c-4.7-0.1-6,1.4-6,6
		c0.1,32.3,0.1,64.6,0,97c0,1.5-0.2,3.1-0.3,4.6h-1.5c-0.2-1.5-0.4-3-0.4-4.4c-0.1-32.8,0-65.6-0.2-98.4c0-4.3,1-6.3,5.9-6.2
		c12.8,0.3,25.7,0.4,38.5-0.1c5.3-0.2,6.4,1.8,6.4,6.5c-0.2,25.8-0.1,51.6-0.1,77.4v24.9L1076.8,711.3z"/>
	<path class="st0" d="M1152.3,609.9c0,7.7,0.1,14.7-0.1,21.6c0,1-1.6,1.9-2.5,2.8c-0.8-1-2.2-2-2.2-3.1c-0.3-4.7-0.2-9.3-0.2-14
		c0-1.7-0.2-3.4-0.3-5.2h-1.3v21.8l-6,0.5v-22.4h-2v12.4c0.1,2.3,0.1,4.7-0.1,7c-0.1,1-1.2,1.9-1.9,2.9c-0.9-0.9-2.5-1.8-2.6-2.8
		c-0.3-4.5-0.2-9-0.2-13.5c0-1.9,0-3.9,0-5.8h-1.7v14.6c0,1.5,0.4,3.2-0.1,4.5s-1.9,2.1-2.9,3.1c-1-1-2.7-2-2.8-3.1
		c-0.3-4.8-0.1-9.7-0.2-14.5c0-1.6-0.3-3.2-0.4-4.8h-1.8v22.2h-2.1c-0.3-1.3-0.5-2.7-0.6-4c-0.1-3.2-0.1-6.3-0.1-9.5
		c0.1-10.8,0.1-10.8,10.8-10.8C1137.7,609.9,1144.6,609.9,1152.3,609.9z"/>
	<path class="st0" d="M781.1,720.4c1.3,4.5,0.2,6.2-4.6,6.2c-23.6-0.2-47.2,0-70.9-0.1c-1.6,0-3.6-0.1-4.6-1
		c-0.8-0.7-0.6-2.9-0.2-4.2c0.2-0.7,1.8-1.4,2.8-1.4c25.4,0,50.9,0,76.3,0.1C780.3,720.1,780.7,720.2,781.1,720.4z"/>
	<path class="st0" d="M816.8,671.7c0,4.9,0,9.7,0,14.6c-0.2,15.3-0.4,30.6-0.6,45.8c0,1.1,0,2.2,0,3.3l-1.4,0.3
		c-0.4-1.5-1.1-2.9-1.1-4.4c0-8.3,0.3-16.6,0.4-25c0-1.5-0.2-3-0.3-4.5l-1.5,0.1v29.3c-13.7,2-13.6,2-10.8-10.3
		c3.1-13.4,6-26.9,9.1-40.3c0.7-3.1,2.2-6.1,3.3-9.1L816.8,671.7z"/>
	<path class="st0" d="M608.7,726.3v-6.5h31.6c14.3,0,28.6,0,42.9,0c2.5,0,4.7-0.1,4.8,3.4c0.1,3.7-2.3,3.3-4.7,3.3h-70.4
		C611.6,726.5,610.3,726.3,608.7,726.3z"/>
	<path class="st0" d="M1107.1,708.5c0,8.8-0.1,17.6,0.1,26.5c0.1,3-0.9,4.2-3.9,4.2c-3.1,0-4.4-0.8-4.4-4.2c0.1-18,0.1-35.9,0-53.9
		c0-2.8,0.6-4.3,3.9-4.3c3.1,0.1,4.5,0.8,4.5,4.3C1107,690.2,1107.1,699.4,1107.1,708.5z"/>
	<path class="st0" d="M929.7,543.3l-71.3,13.4v-14h71.2L929.7,543.3z"/>
	<path class="st0" d="M1132.8,660.4c0-5-0.1-10,0-15.1c0.1-3.4,0.2-3.4,4.8-3v18.2l1.5,0.1v-18.5l6-0.4v18.7l1.4,0.2
		c0.3-1.4,0.5-2.8,0.6-4.2c0.1-3.7,0.1-7.3,0-11c-0.1-3.5,1.5-4.3,5.2-3.2c0,5.8,0.2,11.6-0.2,17.3c-0.1,1.1-2.1,2.9-3.3,2.9
		c-8.3,0.3-16.6,0.2-24.9,0c-1.2,0-3.4-1.1-3.4-1.8c-0.3-6.2-0.2-12.4-0.2-18.6l2.2-0.1l0.8,18.3l1.4,0.1v-17.6c5-2,6.5-0.4,6.4,3.6
		c-0.1,4.7,0,9.4,0,14.1H1132.8z"/>
	<path class="st0" d="M583.2,631.4h-6.5v-61.5h6.5V631.4z"/>
	<path class="st0" d="M597.7,555.8c2.2-4.6,3.8-8.3,5.8-11.7c0.7-1,1.8-1.6,3-1.7c19.1-0.1,38.2-0.1,57.5,1L597.7,555.8z"/>
	<path class="st0" d="M599.5,738.9v-59.4h6.8v7c0,15.8,0,31.6,0,47.3C606.3,739.8,606.2,739.9,599.5,738.9z"/>
	<path class="st0" d="M818.3,731.1v-46.5l1.9-0.4c0.9,2.6,1.9,5.2,3,7.7c1.1,1.7,2.3,3.3,3.6,4.8l2.5-0.8c0,8.8,0.2,17.6-0.2,26.4
		c-0.1,2.6-2.1,5-3.2,7.5l-1.8-0.5v-25.8h-1.4c0.1,3.4,0.5,6.7,0.4,10.1c-0.1,4.8-0.4,9.6-1,14.4c-0.2,1.4-1.9,2.6-2.9,3.9
		L818.3,731.1z"/>
	<path class="st0" d="M1102.5,554.8l-61.1-11.5c0-0.3,0-0.6,0-1h12.1c12,0,24,0.3,36-0.1c4.9-0.2,7.8,1.3,9.6,5.7
		C1099.7,549.9,1100.9,551.8,1102.5,554.8z"/>
	<path class="st0" d="M572.7,565.4c0.5,3.5,1.5,7,1.5,10.5c0.1,32.3,0.1,64.7,0,97c-0.1,2-0.4,4.1-0.8,6.1
		c-2.7-3.5-3.8-99.3-2.1-113.4L572.7,565.4z"/>
	<path class="st0" d="M583.3,678.1h-6.5v-44.4h6.5V678.1z"/>
	<path class="st0" d="M1168.2,631.5h-13.6v-21.8c2.8,0,5.7-0.7,7.9,0.2s5.1,3.2,5.4,5.2C1168.7,620.3,1168.2,625.7,1168.2,631.5z"/>
	<path class="st0" d="M1154.7,642.2c0.4-0.2,0.8-0.4,1.3-0.5c12.3-0.9,12.3-0.9,12.3,11.4c0,9.9,0,9.9-9.7,9.7
		c-1.2,0-2.3-0.1-3.8-0.2v-20.4H1154.7z"/>
	<path class="st0" d="M1057.1,633.7h14.9c0,4.5,0.8,9-0.2,13c-1.3,5.4-6.3,2-9.6,2.6c-2,0.4-5,1-5.1-2.8
		C1057,642.4,1057.1,638.3,1057.1,633.7z"/>
	<path class="st0" d="M1054.9,607.3v104.4h-0.9V607.3H1054.9z"/>
	<path class="st0" d="M1049.8,711.8V607.4h0.9v104.4L1049.8,711.8z"/>
	<path class="st0" d="M504.5,341.7l-26.4-22.6l1.2-2.1c1.5,0.5,3.3,0.8,4.6,1.6c5.7,3.7,11.1,7.9,17,11.4
		C505.3,332.7,506,336.2,504.5,341.7z"/>
	<path class="st0" d="M1056.6,612.7h15.7c-0.4,4,0.4,10-1.5,11c-3.3,1.8-8.8,1.7-12.3,0.1C1056.6,622.9,1057.2,617,1056.6,612.7z"/>
	<path class="st0" d="M1032.6,624.2v-17c8.5-2.5,14.4-1.3,14.5,3.1c-10.8,0-5,8.8-7.3,13.9H1032.6z"/>
	<path class="st0" d="M518.2,514.7c17.1,14.1,35,27.3,51.7,41.9l-1.3,1.6l-51.9-41.6L518.2,514.7z"/>
	<path class="st0" d="M509.8,524.3h-5.5v-19.9h5.6L509.8,524.3z"/>
	<path class="st0" d="M689.7,732.5c0-3.2-0.2-6.3,0.1-9.4c0.1-1.1,1.4-2,2.2-3.1c0.8,0.9,2.4,1.8,2.4,2.8c0.2,6.6,0.2,13.2,0,19.9
		c0,1-1.5,1.9-2.4,2.8c-0.8-1-2.1-2-2.2-3.1C689.6,739.1,689.7,735.8,689.7,732.5z"/>
	<path class="st0" d="M788.2,720.6v24c-3.1,1.4-4.6,0.9-4.6-2.8c0.1-6,0.1-12,0-17.9C783.5,720.3,784.9,719.4,788.2,720.6z"/>
	<path class="st0" d="M811,673c-1,3.4-1.9,7-3.1,10.5c-0.2,0.5-1.2,0.7-1.8,1.1l-1-2.4l-5.9,0.5c-0.2-2.3-1.1-5.1-0.2-6.9
		c0.8-1.7,3.6-2.7,5.7-3.3C806.5,672.1,808.6,672.8,811,673z"/>
	<path class="st0" d="M1109,608v57.2h-0.8v-57.3L1109,608z"/>
	<path class="st0" d="M1174.6,609.7c0,7.9,0.1,15.2-0.1,22.5c0,0.8-1.5,1.6-2.3,2.3c-0.7-0.9-1.9-1.8-2-2.7c-0.3-3.6,0-7.3-0.2-10.9
		c-0.2-3.4-0.6-6.8-0.9-10.8L1174.6,609.7z"/>
	<path class="st0" d="M1013.8,720.1c1,1,2.7,2.1,2.8,3.2c0.3,6.3,0.2,12.6,0,18.9c0,1.1-1.3,2.2-2,3.3c-0.8-1-2.2-2-2.2-3.1
		c-0.2-7.1-0.1-14.2-0.1-21.3L1013.8,720.1z"/>
	<path class="st0" d="M926.3,720.9c0,7.4,0.1,14.8-0.1,22.3c0,0.8-1.2,1.5-1.8,2.3c-0.7-0.7-2-1.5-2-2.2c-0.1-6.8-0.2-13.6,0.1-20.3
		c0-0.9,1.7-1.8,2.5-2.7L926.3,720.9z"/>
	<path class="st0" d="M1170.1,652c-0.1-2.6-0.1-5.3,0.1-7.9c0.1-0.9,1.4-1.7,2.2-2.5c0.7,0.8,2.1,1.7,2.1,2.5
		c0.2,5.4,0.2,10.9,0,16.3c0,0.8-1.5,2.2-1.9,2.1c-1-0.3-2.3-1.3-2.4-2.1C1170,657.6,1170,654.8,1170.1,652z"/>
	<path class="st0" d="M522.7,345.3c0,4.3,0.1,8.6-0.1,12.9c-0.3,1.1-1.2,1.9-2.3,2.2c-1.1-0.2-2.1-1-2.5-2.1
		c-0.3-3.8-0.3-7.6,0.1-11.5c0.1-1,2.3-1.8,3.5-2.7L522.7,345.3z"/>
	<path class="st0" d="M505.9,485.7c-6,1.3-7.6-0.2-11.2-9.9C501.9,474.2,502.5,474.7,505.9,485.7z"/>
	<path class="st0" d="M1066.3,606.4c2-0.1,4-0.1,6,0.1c0.8,0.1,1.5,1.2,2.3,1.9c-0.8,0.8-1.5,2.3-2.4,2.3c-4.3,0.2-8.6,0.2-12.9,0
		c-1-0.3-1.7-1.1-1.9-2.1c0.3-1,1-1.8,2-2.1C1061.7,606.3,1064.1,606.3,1066.3,606.4L1066.3,606.4z"/>
	<path class="st0" d="M525.8,351.9l9.6,4.1C527.6,359.1,525.1,357.9,525.8,351.9z"/>
	<path class="st0" d="M1024.2,567.2h15C1036.4,569.6,1029.6,569.8,1024.2,567.2z"/>
	<path class="st0" d="M819.3,673.8l-2-15.1l1.4-0.2l2,15L819.3,673.8z"/>
	<path class="st0" d="M1046.3,648.2v-13.9h0.8v14L1046.3,648.2z"/>
	<path class="st0" d="M1057.8,630h13.6l0.1,1h-13.7C1057.8,630.7,1057.8,630.3,1057.8,630z"/>
	<path class="st0" d="M924.9,671.8v12.7h-1.1v-12.7H924.9z"/>
	<path class="st0" d="M1170.5,638.5h-12.7v-0.9h12.7C1170.5,637.9,1170.5,638.2,1170.5,638.5z"/>
	<path d="M1379.9,776.2h30v1.2h-30C1379.9,777,1379.9,776.5,1379.9,776.2z"/>
	<path d="M246.8,640H261c0,0.4,0,0.9,0,1.3h-14.2V640L246.8,640z"/>
	<path class="st0" d="M1072.1,197.4l-11-1.6l0.2-1.3l11,1.1L1072.1,197.4z"/>
	<path class="st4" d="M1004.8,639c0,8.3-0.1,16.7,0,25c0.1,3.3-0.8,4.8-4.5,4.7c-9-0.2-18-0.2-27,0c-3.3,0.1-4.3-1.3-4.3-4.4
		c0.1-16.8,0.1-33.6,0-50.5c0-3.2,1.1-4.5,4.3-4.5c9.2,0.1,18.3,0.2,27.5,0c3.2,0,4,1.3,4,4.2C1004.8,622,1004.8,630.5,1004.8,639z
		 M971.5,611.7v54.4h31.2v-54.4H971.5z"/>
	<path d="M586.6,564.8L564,508.5l1.6-0.7c7.6,18.8,15.1,37.5,22.6,56.3L586.6,564.8z"/>
	<path class="st4" d="M994.1,651.2c-6.4,0-12.6,0.1-18.9-0.1c-1.1-0.4-2-1.3-2.3-2.5c-0.2-11.5-0.1-22.9-0.1-34.7h21.3V651.2z
		 M992.2,633.9h-17.4v15.3c1.7,0.1,3,0.3,4.2,0.3C994.1,649.7,994.1,649.7,992.2,633.9z M992.5,615.7h-17.7v8.3h17.7V615.7z"/>
</g>
<g>
	<path d="M227.7,141.9c1.2-4.3,2.3-8.3,3.4-12.4c1.1-4.1,2.3-8.1,3.8-12.1c0.2-0.4,0.4-0.9,0.6-1.3c0.4-0.7,1-1,1.8-0.9
		s0.8,0.8,0.9,1.3c0.6,2.8,0.9,5.7,1.1,8.5c0.6,6.5,0.7,13.1,2.1,19.5c0.2,1,0.5,1.9,1.1,2.7c0.4,0.5,0.6,1.2,0.1,1.8
		c-0.5,0.7-1.3,0.9-2.1,0.8c-0.7-0.1-1-0.6-1.1-1.2c-0.8-3-1-6.1-1.4-9.1c-0.7-6-0.9-12-1.7-18c0-0.1-0.1-0.3-0.3-0.5
		c-0.4,1.2-0.8,2.4-1.2,3.7c-1.4,5.1-2.7,10.3-4.1,15.4c-0.3,1-0.6,2.1-1,3.1c-0.2,0.7-0.5,1.3-1.1,1.8c-0.6,0.6-1.3,1.2-2.2,1
		s-0.8-1.2-1-1.9c-1.1-5.4-1.7-10.9-2.4-16.3c-0.2-1.3-0.4-2.6-0.5-4c-0.6,0.3-0.7,0.8-0.8,1.2c-1.2,3.3-1.6,6.8-2.3,10.3
		c-1,4.7-1.6,9.4-2.4,14.2c-0.1,0.5-0.3,1-0.7,1.3c-0.5,0.3-1,0.7-1.5,0.4c-0.6-0.2-0.7-0.8-0.7-1.4c-0.4-5.8-1.1-11.6-1.7-17.4
		c-0.4-3.6-1-7.2-1.8-10.7c-0.3-1.5,0-2.2,1-2.7c0.9-0.4,1.4-0.3,1.7,0.8c0.5,2.3,0.7,4.6,0.9,6.9c0.6,5.6,1.1,11.2,1.7,17
		c1.2-6.5,2-12.9,3.7-19.1c0.4-1.3,0.8-2.5,1.6-3.6c0.4-0.4,0.7-0.8,1.3-1c0.9-0.3,1.4-0.2,1.8,0.8c0.8,2.2,1.1,4.6,1.4,6.9
		C226.3,132.2,226.5,137,227.7,141.9z"/>
	<path d="M649.5,244.6c0.5-1.2,1-2.5,1.6-3.7c1.9-4.6,4-9.1,6.8-13.2c0.8-1.1,1.6-2.1,2.6-2.9c1.9-1.4,3.8-1.1,5,1
		c1.1,1.9,1.5,4.1,1.7,6.3c0.4,3.9,0.2,7.8,0.2,11.7c0,1.5-0.1,3,0.2,4.4c0.1,0.6,0,1.2-0.3,1.8c-0.4,0.8-1.1,0.9-1.8,0.8
		c-0.8-0.1-0.9-0.7-0.9-1.4c0.1-3.8,0.2-7.7,0.3-11.5c0-2.6,0-5.2-0.5-7.8c-0.2-0.8-0.4-1.6-0.8-2.4c-0.7-1.1-1.4-1.3-2.4-0.5
		c-1.2,0.9-2,2.2-2.8,3.5c-3.3,5.8-5.8,11.9-8.3,18.1c-0.2,0.6-0.5,1.2-0.8,1.7c-0.4,0.7-1,0.8-1.7,0.6c-0.7-0.1-0.7-0.7-0.8-1.3
		c0-1.5,0-3,0-4.6c-0.1-3.6,0-7.2-0.3-10.8c-0.4-6.1-0.3-12.2-1.4-18.2c-0.2-0.9-0.1-1.7,1-1.9s1.7,0.1,1.9,1.4
		c0.3,1.5,0.5,3.1,0.5,4.6c0.2,4,0.2,8,0.3,12C649.2,236.5,649.2,240.5,649.5,244.6z"/>
	<path d="M945.8,146.8c-0.8-0.1-1.6,0-2.4-0.3c-1-0.5-1.2-1.2-1-2.2c0.3-1,1.1-0.8,1.8-0.6c1.1,0.4,2.2,0.2,3.3,0.1
		c1.1-0.1,2.2-0.2,3.3-0.2c0.7,0,1-0.3,1-1c0.1-2.6,0.2-5.3,0.2-7.9c0.2-5,0.3-10,0.5-15c0-1.4-0.2-1.6-1.6-1.4
		c-2.5,0.2-4.9,0.4-7.4,0.6c-0.8,0.1-1.5-0.1-2.1-0.6c-0.5-0.5-0.8-1.1-0.5-1.8c0.2-0.7,0.8-0.9,1.5-0.8c1.7,0.2,3.4,0.3,5.1,0.2
		c1.5-0.1,2.9-0.2,4.4-0.2c0.5,0,0.8-0.2,1.1-0.6c0.8-1.1,1.1-1.1,1.9,0c0.3,0.4,0.7,0.4,1.1,0.4c2.4-0.3,4.8-0.7,7.2-1
		c0.8-0.1,1.6-0.3,2.2-0.8c0.7-0.5,1.3-0.3,1.7,0.5c0.4,0.7,0.2,1.4-0.5,1.9c-0.5,0.3-1.1,0.5-1.7,0.6c-3,0.7-6.1,1-9.1,1.3
		c-0.9,0.1-1,0.5-1,1.2c-0.1,4.4-0.2,8.7-0.3,13.1c-0.1,3.3-0.1,6.5-0.2,9.8c0,1,0.3,1.4,1.3,1.3c2.5-0.2,4.9-0.3,7.4-0.5
		c0.8-0.1,1.7-0.1,2.5,0.3c0.8,0.4,1,1,0.8,1.8s-0.8,0.9-1.4,0.8c-2.3-0.3-4.5-0.3-6.8-0.2c-1.2,0-2.5,0-3.7,0.2
		C951.7,146.6,948.7,146.1,945.8,146.8z"/>
	<path d="M691.3,235.3c-1.7,2.5-3,5-4.7,7.1c-2.2,2.7-4.6,5.3-8.1,6.4c-0.7,0.2-1.4,0.4-2.1,0.4c-2.7,0.1-4.2-1.4-4-4.1
		c0.1-1.1,0.4-2.2,0.9-3.2c3-6.3,7-11.7,12.7-15.8c1.2-0.9,2.5-1.5,4-1.2c2.3,0.5,3.6,2.8,3,5.2c-0.1,0.6-0.3,1.1,0.4,1.5
		c0.5,0.3,0.4,1,0.5,1.6c0.1,3.3,0.2,6.6,0.3,9.9c0,1.2,0.1,2.3,0.7,3.3c0.4,0.7-0.3,2.3-1.2,2.6c-1,0.3-1.6-0.4-1.9-1.2
		c-0.5-1.5-0.5-3-0.4-4.5c0.2-2.4,0.1-4.8,0.1-7.2C691.6,235.9,691.5,235.8,691.3,235.3z M690.9,230.1c0.1-0.9-0.2-1.8-1.1-2.3
		c-0.9-0.6-1.9-0.2-2.7,0.4c-0.4,0.3-0.8,0.5-1.2,0.8c-2.2,1.8-4.1,4-5.8,6.3c-1.9,2.6-3.7,5.2-4.6,8.3c-0.5,2,0.3,2.8,2.3,2.4
		c1.9-0.4,3.5-1.5,4.9-2.8c3-2.7,5-6.2,7.1-9.6C690.6,232.6,690.9,231.5,690.9,230.1z"/>
	<path d="M628.4,237.1c0.4,3.1-0.1,6.1,0,9.2c0,0.9-0.3,1.7-1.3,2.1c-1.2,0.4-1.9,0-1.9-1.3c0-2.2,0.2-4.5,0.3-6.7
		c0.2-3.4,0.2-6.9,0-10.3c-0.1-2.4-0.1-4.8-0.1-7.2c0-2-0.1-2.1-2.1-1.8c-4,0.6-7.9,1-11.8,1.9c-1.2,0.3-2.1-0.2-2.9-1
		c-0.4-0.4-0.6-1-0.4-1.5c0.2-0.6,0.7-0.7,1.3-0.7c4.6-0.1,9.1-0.8,13.7-1.2c1.1-0.1,1.9-0.4,1.9-1.7c0-0.5-0.1-1.3,0.7-1.3
		s1.6,0.3,1.8,1.2c0.2,1.1,0.7,1.1,1.6,0.9c3-0.4,6-0.8,9-1.2c1-0.1,2.1,0.1,3.1,0.4c1,0.3,1.5,1.3,1.2,2.2c-0.4,0.9-1,1.2-2,0.9
		c-3.1-0.7-6.2-0.3-9.3,0.1c-2.9,0.4-2.9,0.5-2.7,3.4c0,1,0,1.9,0,2.9C628.4,229.9,628.4,233.5,628.4,237.1z"/>
	<path d="M261,133.5c-2.4,5.4-4.9,10.8-8.4,15.6c-0.6,0.9-1.3,1.7-2.3,2.3c-1.3,0.7-2.5,0.4-3-1c-0.3-0.7-0.5-1.5-0.5-2.2
		c-0.4-7,0.2-13.9,2.9-20.5c0.2-0.4,0.4-0.8,0.8-1.1c0.6-0.3,1.2-0.4,1.7,0s0.2,0.9,0,1.3c-2.8,5.8-3.4,12-3.1,18.3
		c0,0.7,0,1.5,0.7,1.8c0.7,0.2,1.2-0.5,1.7-1c1.4-1.6,2.5-3.4,3.4-5.2c2.5-4.7,4.9-9.4,5.9-14.7c0.1-0.5,0.2-1.2,1-1.1
		c0.9,0.1,1.4,0.6,1.5,1.6c0.3,3,0.1,6.1,0.2,9.1c0.1,2.9,0.3,5.8,0.5,8.7c0.1,1.5,0.7,2.8,1.5,4c0.7,1.1,0.5,2.1-0.4,2.6
		s-1.8,0.1-2.3-1.1c-0.8-1.9-1.2-4-1.3-6C261,141.1,261,137.3,261,133.5z"/>
	<path d="M1197.7,161.8c-0.2,0-0.8,0-1.3,0c-2.2-0.2-3.2-1.1-3.7-3.3c-0.4-1.7-0.5-3.5-0.6-5.2c-0.1-1.6-0.2-3.3-0.3-4.9
		c0-0.7-0.3-0.9-1-0.7c-0.5,0.2-0.9,0.2-1.4,0.2c-0.7,0-0.9-0.5-1-1.1s0.1-1,0.8-1.2h0.1c2.3-0.7,2.2-0.7,2.2-3.1c0-2-0.1-4-0.2-6
		c-0.1-0.8-0.3-1.1-1.1-1c-0.7,0-1.6,0.3-1.7-0.8c-0.1-1,0.6-1.6,1.6-1.8c0.5-0.1,1-0.2,1.4-0.6c0.5-0.5,1-0.9,1.7-0.1
		c0.3,0.3,0.7,0.2,1.1,0.1c3.2-0.4,6.3-1.2,9.3-2.3c0.3-0.1,0.6-0.2,0.9-0.3s0.6-0.2,0.9,0.1c0.2,0.3,0.1,0.6,0,0.9
		c-0.3,0.6-0.9,1-1.5,1.3c-2.8,1.6-5.9,2.4-9.1,2.9c-1.7,0.2-1.8,0.3-1.6,1.9c0.2,2.2,0.2,4.5,0.2,6.7c0,0.8,0.3,1.1,1.1,0.8
		c1.4-0.4,2.8-0.7,4.2-1.1c1.2-0.3,2-1.1,2.8-1.9c0.2-0.2,0.4-0.5,0.8-0.4c0.4,0.2,0.5,0.5,0.5,0.9c0.1,0.9-0.4,1.4-1,1.9
		c-1.7,1.6-4,2-6.1,2.6c-2,0.5-2,0.5-2,2.6c0.1,2.7,0.3,5.3,0.7,8c0.3,1.9,0.4,2.2,2.3,2.5c2.1,0.3,4.2,0.3,6-1
		c1.5-1.1,1.7-1.9,1.1-3.6c-0.2-0.5-0.6-1,0.1-1.4c0.7-0.3,1.1,0.2,1.4,0.7c0.3,0.6,0.4,1.3,0.3,2
		C1205,159.4,1201.8,162.2,1197.7,161.8z"/>
	<path d="M710.2,224.7c0,1.3,0,2.5,0,3.7c0,0.7,0.2,1,1,0.8c2.4-0.5,4.8-1,7.1-1.5c0.4-0.1,0.7-0.2,0.9-0.5c0.3-0.5,0.6-1.1,1.4-0.8
		c0.7,0.3,1.2,0.9,1.3,1.7c0.1,0.7-0.2,1.4-0.9,1.7c-0.5,0.2-1.1,0.5-1.7,0.6c-2.6,0.5-5.1,0.9-7.7,1.3c-0.7,0.1-1.3,0.3-1.3,1.2
		c0,3.8-0.1,7.7,0.5,11.5c0.1,1,0.5,1.9,0.8,2.9c0.4,1.2,0,1.9-1.2,2.2c-1,0.3-1.5-0.1-1.8-1.3c-0.4-1.6-0.6-3.3-0.7-5
		c-0.3-3.1-0.4-6.2-0.3-9.3c0-1-0.1-1.6-1.4-1.2c-1.9,0.5-3.8,0.8-5.7,1.1c-0.7,0.1-1.4,0.2-2,0.1c-0.8-0.1-1.4-0.5-1.4-1.4
		s0.7-1.1,1.4-1.2c2.7-0.1,5.3-0.9,8-1.3c0.9-0.1,1.1-0.5,1-1.4c-0.2-2.9-0.4-5.7,0.1-8.6c0.1-0.8,0.4-1.7,1.3-2
		c1-0.4,1.7,0.1,1.5,1.2C710.2,221,710.2,222.9,710.2,224.7z"/>
	<path d="M274.4,153.2c-0.8,0.1-1.5,0-2.3-0.2c-1.2-0.4-1.5-1.3-0.9-2.3c0.4-0.6,0.8-1.1,1.3-1.6c0.8-0.8,1.2-0.6,1.5,0.5
		c0.2,0.7,1,0.7,1.5,0.6c2.4-0.1,4.6-0.9,6.4-2.5c1.1-1,1.9-2.1,1.6-3.7c-0.3-1.6-1.5-2.4-3-2.8c-2.5-0.7-5.1-1.5-7.6-2.2
		c-0.4-0.1-0.8-0.3-1.1-0.4c-3.7-1.4-3.9-4.5-2.1-7.2c2.5-3.5,6.1-5.2,10.2-5.9c0.7-0.1,1.4,0,1.8,0.7c0.3,0.8,0.1,1.6-0.4,2.3
		c-0.4,0.6-1,0.7-1.7,0.3c-0.4-0.2-0.8-0.2-1.2-0.1c-2.3,0.4-4.5,1.3-6.1,3c-1.8,1.9-1.4,3.9,1.1,4.7c2.4,0.8,4.7,1.4,7.1,2.1
		c0.8,0.2,1.6,0.6,2.3,0.9c3.5,1.4,3.5,4.6,2.4,7c-1.7,3.7-4.9,5.6-8.7,6.4C275.9,153.1,275.1,153.2,274.4,153.2z"/>
	<path d="M1347.3,144c-1.1,4.7-2.2,9-4,13.1c-0.6,1.3-1.3,2.5-2.3,3.4c-1.4,1.2-2.9,1-3.7-0.7c-1.1-2.2-1-4.5-0.6-6.8
		c0.8-5.4,3.1-10.2,6.2-14.6c0.5-0.7,1.1-1.5,2-1.9c0.9-0.5,1.6-0.1,1.7,0.9c0.1,1.3-0.5,2.4-1.1,3.5c-0.1,0.2-0.3,0.4-0.5,0.2
		c-0.1-0.1-0.2-0.3-0.2-0.4c0-0.4,0.3-0.8,0.1-1.4c-0.7,0.2-1,0.7-1.3,1.2c-2.9,4.2-4.8,8.7-5.4,13.8c-0.1,0.8,0,1.6,0.2,2.4
		c0.3,1.5,1.4,1.9,2.6,0.8c1-0.9,1.6-2.2,2.1-3.5c1.4-3.5,2.3-7.1,3.2-10.8c0.9-3.5,1-7.1,0.7-10.7c-0.2-2.3-0.2-4.7,0.2-7.1
		c0.1-0.4,0.1-1,0.7-1s0.9,0.5,0.9,1.1c0,1.2,0,2.4,0,3.6c0,6.6-0.1,13.3,0.1,19.9c0.1,2.6,0,5.3,0.4,7.9c0.1,0.6,0.1,1.2,0,1.8
		c-0.1,0.7-0.5,1.1-1.2,1.2c-0.7,0-0.6-0.6-0.7-1.1c-0.3-1.2,0-2.3,0.1-3.4C1347.3,151.8,1347.3,148.1,1347.3,144z"/>
	<path d="M311.6,129c-0.1,0.4-0.2,1-0.3,1.7c-0.1,0.4-0.2,0.7-0.7,0.7c-0.4,0-0.6-0.4-0.6-0.8c-0.1-0.8-0.2-1.5-0.3-2.3
		c-0.1-1.1-0.5-1.3-1.5-0.8c-1.1,0.5-1.8,1.4-2.4,2.4c-2.6,4.1-3.9,8.6-4.8,13.3c-0.2,1.2-0.4,2.4,0,3.7c0.4,1.4,1.2,1.9,2.6,1.5
		c1-0.3,1.9-0.9,2.6-1.6c2.1-2,3.8-4.3,5.4-6.7c0.2-0.3,0.5-0.7,0.7-0.9s0.5-0.2,0.8-0.1c0.2,0.1,0.3,0.4,0.2,0.6
		c-0.1,0.3-0.2,0.7-0.4,1c-1.8,3.2-4,6.2-6.6,8.8c-0.9,0.9-2,1.6-3.3,1.8c-2.7,0.3-4.8-1.8-4.9-5c-0.1-2.5,0.3-4.9,1-7.3
		c1.1-4,2.4-7.8,4.7-11.2c0.4-0.7,1-1.3,1.5-1.8c1.1-1.1,2.4-2.1,4-1.3C311.1,125.5,311.6,127,311.6,129z"/>
	<path d="M1257.9,144.6c-1.6,4.6-3.2,9.1-5.4,13.3c-0.5,0.9-0.9,1.8-1.7,2.5c-0.9,0.9-1.9,0.7-2.4-0.5c-0.3-0.7-0.4-1.5-0.5-2.2
		c-0.3-6.1,0.2-12,1.8-17.9c0.1-0.4,0.3-0.8,0.4-1.1c0.2-0.5,0.6-0.8,1.1-0.6c0.6,0.2,0.5,0.7,0.3,1.2c-0.8,2.5-1.5,5-1.9,7.5
		c-0.4,3.2-0.5,6.4-0.4,9.7c0,0.5,0,1.1,0.5,1.3c0.6,0.2,0.9-0.4,1.2-0.9c1.8-2.8,3-5.9,4.1-9c1.1-3,2.1-6,2.5-9.2
		c0-0.4,0.1-0.9,0.6-0.9c0.4,0,0.7,0.3,0.9,0.6c0.3,0.4,0.2,0.8,0.2,1.3c0.1,4.7,0.1,9.3,0.3,14c0.1,1.8,0.3,3.7,1.2,5.3
		c0.2,0.4,0.3,0.7,0.3,1.2c0,0.6-0.2,1.1-0.8,1.3c-0.7,0.2-1-0.4-1.2-0.9c-0.6-1.6-0.9-3.2-1-4.9
		C1258,151.9,1258,148.2,1257.9,144.6z"/>
	<path d="M1299.3,160.9c-2.1,0-3.7-1.2-4.4-3.1c-1.1-3-0.9-6-0.3-9.1c0.7-3.5,1.8-6.8,4.2-9.5c1-1.1,2.3-2,3.9-1.8
		c2.4,0.3,3.3,2.9,2,5.3c-0.9,1.8-2.5,3-4.2,4c-0.8,0.5-1.6,0.9-2.5,1.1c-1.2,0.3-1.7,0.9-1.7,2c-0.1,1.8-0.3,3.6,0.2,5.4
		c0.3,1.3,0.9,2.5,2.3,2.8c1.5,0.4,2.8-0.2,3.7-1.3c1.6-2,2.4-4.4,3.3-6.7c0.2-0.5,0.1-1.4,0.7-1.3c0.6,0.2,0.3,1.1,0.2,1.6
		c-0.6,2.6-1.4,5.2-2.8,7.5C1302.6,159.5,1301.3,160.8,1299.3,160.9z M1303.4,140.9c-0.1-0.9-0.7-1.4-1.6-1.4s-1.6,0.5-2.2,1.1
		c-1.2,1.3-2,2.8-2.5,4.5c-0.1,0.2-0.3,0.5,0,0.8c0.2,0.2,0.5,0,0.8-0.1c2-0.8,3.8-2,5.1-3.8
		C1303.2,141.8,1303.4,141.4,1303.4,140.9z"/>
	<path d="M1322.1,152.9c0.3-5,1.3-9.7,4.6-13.7c1-1.2,2.2-2,3.8-1.9c2.4,0.3,3.4,2.9,2.1,5.3c-1,1.9-2.7,3.2-4.5,4.2
		c-0.9,0.5-1.8,0.9-2.8,1.2c-0.6,0.2-0.9,0.5-1,1.1c-0.3,2-0.4,4,0,6c0.3,1.4,0.9,2.6,2.3,2.9c1.5,0.4,2.8-0.2,3.7-1.4
		c1.6-1.9,2.4-4.3,3.2-6.6c0.2-0.5,0.1-1.5,0.8-1.3c0.5,0.1,0.2,1.1,0.1,1.6c-0.6,2.5-1.4,5-2.7,7.2c-0.2,0.3-0.3,0.5-0.5,0.8
		c-1.2,1.7-2.8,2.8-5,2.4c-2.2-0.4-3.2-2-3.8-3.9C1322.2,155.6,1322,154.2,1322.1,152.9z M1331.5,140.9c-0.1-0.8-0.5-1.3-1.3-1.4
		c-1-0.1-1.7,0.3-2.3,1c-1.3,1.3-2.1,3-2.7,4.7c-0.2,0.7,0,1,0.7,0.7c2.1-0.8,3.9-2.1,5.2-3.9
		C1331.3,141.7,1331.5,141.4,1331.5,140.9z"/>
	<path d="M1210.4,155c1-3.8,2-7.4,3.2-10.9c0.4-1.3,0.9-2.6,1.6-3.7c0.4-0.6,0.8-1.2,1.6-1.1c0.8,0.1,1,0.9,1.2,1.5
		c0.6,2.3,0.6,4.7,0.7,7.1c0.1,4,0.1,8.1,0.1,12.1c0,0.4,0,0.8-0.1,1.2c-0.1,0.6-0.4,1.1-1.1,1c-0.7,0-0.9-0.5-0.9-1.2
		c0.1-4.1,0.3-8.2,0.4-12.3c0-2-0.1-4.1-0.2-6.1c0-0.3-0.1-0.6-0.4-0.6c-0.2,0-0.4,0.2-0.6,0.4c-0.6,0.6-0.9,1.4-1.2,2.2
		c-1.5,4.2-2.5,8.4-3.6,12.7c0,0.1,0,0.2-0.1,0.4c-0.3,0.8-0.4,1.9-1.5,1.7c-1-0.2-0.7-1.2-0.7-1.9c-0.4-5.4-0.6-10.9-1.2-16.3
		c-0.1-0.7-0.2-1.4,0.1-2.1c0.2-0.5,0.5-0.9,1.1-0.9s0.6,0.6,0.6,1c0.3,2.9,0.3,5.7,0.5,8.6C1210.1,150,1210,152.4,1210.4,155z"/>
	<path d="M1266.5,154.7c1.3-4,2.3-8,3.8-11.9c0.4-1,0.8-2,1.5-2.8c0.9-1.1,1.8-0.9,2.3,0.4c0.4,1.1,0.5,2.2,0.6,3.3
		c0.4,5.7,0.3,11.4,0.3,17.1c0,0.8-0.2,1.5-1.2,1.5s-0.9-0.9-0.9-1.5c0.1-4.1,0.4-8.1,0.4-12.2c0-1.9-0.1-3.8-0.2-5.7
		c0-0.3-0.1-0.6-0.4-0.7c-0.4-0.1-0.6,0.2-0.8,0.4c-0.5,0.7-0.8,1.5-1.1,2.2c-1.4,4.2-2.5,8.4-3.6,12.7c-0.2,0.8-0.3,2-1.4,1.9
		c-1.2-0.1-0.8-1.3-0.8-2.1c-0.4-5.4-0.8-10.8-1.2-16.2c0-0.7-0.2-1.4,0-2c0.2-0.5,0.5-1,1.1-1c0.7,0,0.7,0.6,0.7,1
		c0.3,2.8,0.4,5.6,0.4,8.5C1266.2,149.9,1266.3,152.3,1266.5,154.7z"/>
	<path d="M1245.5,150.6c-0.2,3.5-1.4,6.5-4,9c-1.2,1.1-2.6,1.6-4.2,1.4c-2-0.3-3.3-1.9-3.5-4.3c-0.5-5.7,0.7-11,3-16.1
		c0.1-0.3,0.3-0.5,0.6-0.8c0.5-0.5,1.1-0.9,1.8-0.4c0.7,0.5,0.2,1.1-0.1,1.6c-2.3,4.5-3.8,9.1-3.6,14.2c0.1,1.3,0.3,2.4,1.6,3
		c1.3,0.5,2.5,0.2,3.5-0.7c3.7-3.4,3.9-7.8,0.4-11.6c-0.5-0.6-1-1.1-1.4-1.8c-0.4-0.6-0.6-1.2,0-1.7c0.5-0.6,1.2-0.6,1.9-0.5
		c0.2,0,0.4,0.2,0.3,0.4c-0.2,0.9,0.5,1.4,0.9,2C1244.3,146.1,1245.6,148.1,1245.5,150.6z"/>
	<path d="M1292.7,140.9c0,1.2-0.7,1.6-1.7,1.9c-1.6,0.4-3.2,0.9-4.8,1.2c-0.8,0.2-1.1,0.5-1,1.3c0.1,4.7-0.1,9.3,0.9,13.9
		c0.1,0.3,0.1,0.6,0,1c-0.1,0.5-0.4,1-1,1.1c-0.7,0.1-0.8-0.5-0.9-1c-0.4-2.4-0.6-4.8-0.6-7.3c-0.1-2.4-0.2-4.8-0.2-7.2
		c0-0.8-0.2-1.1-1.1-0.8c-1.2,0.4-2.4,0.7-3.7,1.1c-1,0.3-1.8-0.1-1.9-1c-0.1-1,0.6-1.3,1.4-1.3c1.6-0.2,3-0.8,4.5-1.2
		c0.7-0.2,0.7-0.7,0.7-1.3c0-2.2,0-4.4,0-6.6c0-1,0.1-2,0.4-3c0.1-0.5,0.5-1,1.1-0.9s0.6,0.7,0.5,1.2c-0.4,2.9-0.1,5.7-0.2,8.6
		c0,1,0.3,1.3,1.3,1c1.2-0.4,2.4-0.8,3.5-1.1c0.4-0.1,0.8-0.2,1-0.6c0.2-0.3,0.2-0.9,0.8-0.7c0.5,0.1,0.6,0.6,0.8,1
		C1292.7,140.3,1292.7,140.6,1292.7,140.9z"/>
	<path d="M1221.5,155.1c0.3-5.6,1.6-11,4.1-16c0.5-1,1-1.9,2-2.5s1.8-0.4,2.4,0.6c1,1.5,0.9,3.1,0.5,4.7c-0.1,0.2-0.1,0.5-0.4,0.5
		s-0.4-0.3-0.4-0.5c-0.1-0.8-0.2-1.6-0.3-2.4c-0.1-0.7-0.4-0.8-1-0.5c-0.7,0.4-1.1,1.1-1.5,1.8c-1.9,3.6-2.7,7.4-3.4,11.3
		c-0.2,1.4-0.3,2.8-0.2,4.2c0,0.7,0.1,1.5,0.8,1.9c0.8,0.4,1.5-0.1,2.1-0.6c1.2-1,2-2.4,2.8-3.7c0.7-1.2,1.4-2.4,2.1-3.7
		c0.2-0.3,0.3-0.7,0.8-0.5c0.4,0.2,0.2,0.5,0.1,0.9c-1.3,3.3-2.9,6.5-5.4,9.1c-1.7,1.9-3.7,1.4-4.7-1
		C1221.5,157.6,1221.5,156.3,1221.5,155.1z"/>
	<path d="M1311.4,147.3c0.9-2.3,1.7-4.7,2.9-6.9c0.5-0.9,1-1.7,1.8-2.4c1-0.8,2.1-0.7,3.1,0.3c1,1.1,1.3,2.6,0.5,3.5
		c-0.5,0.6-0.9,0.6-1.4,0c-0.1-0.2-0.2-0.4-0.4-0.6c-0.8-1.3-1.5-1.4-2.4,0c-0.9,1.5-1.6,3.1-2.1,4.7c-0.7,2-1.4,4-1.9,6
		c-0.5,1.8-0.2,3.7-0.1,5.5c0.1,1,0.1,2,0.1,3c0,0.5-0.2,1.1-0.8,1.2c-0.7,0.1-0.8-0.6-0.9-1.1c-0.2-1.3-0.3-2.5-0.3-3.8
		c-0.1-2.9,0-5.8,0-8.7c0-2.5-0.3-5-0.2-7.5c0-0.3,0-0.6,0-1c0.1-0.6,0.3-1,0.9-1c0.7,0,0.8,0.5,0.8,1.1c0.3,2,0.2,4,0.2,6
		C1311.4,146,1311.4,146.6,1311.4,147.3z"/>
	<path d="M292.9,134c0,5.2,0.1,10.4,0.9,15.5c0.1,0.6,0,1.2,0.1,1.8c0,0.7-0.3,1-1,1.2s-1-0.4-1.2-0.9c-0.4-1.2-0.5-2.5-0.6-3.8
		c-0.3-3.7-0.4-7.4-0.6-11.1c-0.1-3.1-0.3-6.3-0.2-9.5c0-0.7-0.2-1.7,0.9-1.7c1,0,1.5,0.8,1.5,1.6c0.1,2.1,0.1,4.2,0.1,6.4
		C292.9,133.7,292.9,133.9,292.9,134z"/>
	<path d="M291.1,119.6c-1.1-0.1-1.9-0.7-2.3-1.7c-0.4-0.8,0-1.5,0.6-2s1.2-0.2,1.7,0.3c0.4,0.5,0.8,0.9,1.2,1.5
		c0.3,0.4,0.7,0.8,0.3,1.3C292.3,119.5,291.8,119.5,291.1,119.6z"/>
</g>
</svg>
